<?xml version="1.0" standalone="no"?>
<!DOCTYPE svg PUBLIC "-//W3C//DTD SVG 1.1//EN" "http://www.w3.org/Graphics/SVG/1.1/DTD/svg11.dtd" >
<svg>
<metadata>
Created by FontForge 20090914 at Fri Feb 24 11:14:41 2012
 By root
Copyright (c) 2008 by Nate Piekos. Blambot.com. All rights reserved.
</metadata>
<defs>
<font id="DigitalStrip.BB" horiz-adv-x="410" >
  <font-face 
    font-family="DigitalStrip 2.0 BB"
    font-weight="400"
    font-stretch="normal"
    units-per-em="1000"
    panose-1="2 0 5 6 0 0 0 2 0 4"
    ascent="750"
    descent="-250"
    x-height="546"
    cap-height="518"
    bbox="-27.6207 -78 746 657"
    underline-thickness="50"
    underline-position="-50"
    unicode-range="U+0020-U+2122"
  />
<missing-glyph horiz-adv-x="284" 
 />
    <glyph glyph-name=".notdef" horiz-adv-x="284" 
 />
    <glyph glyph-name="B" unicode="B" horiz-adv-x="438" 
d="M271 532q22 -6 42 -20.5t35.5 -34t25 -41t12.5 -41.5q4 -30 0.5 -47t-12 -28t-21 -20.5t-24.5 -23.5q17 -7 30.5 -22t23 -34.5t14.5 -40.5t5 -40q0 -17 -5 -32q-8 -23 -28 -42t-45.5 -33.5t-53.5 -23.5t-51 -11q-12 -2 -23 -2h-22q-26 0 -49 4.5t-45 15.5q-18 9 -24 24
t-6 35t3 42t3 45q0 68 -1 141t-1 144q0 28 5 46t16 28.5t28.5 14t42.5 3.5q24 0 55 -2t70 -4zM141 438q-11 -15 -11 -43q0 -17 2.5 -34t3.5 -31q1 -15 13 -20.5t29 -5.5q23 0 49 7t39 14q27 14 38.5 27.5t11.5 27.5q0 15 -12.5 29t-31 24.5t-41 16.5t-42.5 6q-16 0 -28.5 -4
t-19.5 -14zM132 172q0 -21 -1.5 -32.5t-1.5 -21.5q0 -12 7 -34l14 -8q9 -6 26.5 -5.5t36 4t35 8t22.5 7.5q23 11 39.5 24.5t16.5 33.5q0 16 -13 36q-6 9 -18.5 16t-28.5 12t-34.5 7.5t-35.5 2.5q-26 0 -45 -6.5t-19 -20.5q1 0 0.5 -10.5t-0.5 -12.5z" />
    <glyph glyph-name="C" unicode="C" horiz-adv-x="483" 
d="M434 449q2 -2 -3 -10.5t-21 -8.5q-13 0 -34.5 10t-53.5 36q-53 -1 -94 -23.5t-70 -58t-44 -79t-15 -85.5q0 -32 9 -61.5t28 -52t48.5 -36t69.5 -13.5q9 0 24 0.5t32.5 3t35 8t31.5 15.5l16 9q1 2 7 4.5l12.5 5t12.5 3t7 -1.5q11 0 16 -7t5 -18q0 -16 -7.5 -33.5
t-13.5 -23.5q-15 -15 -34.5 -24.5t-41 -14.5t-44 -7t-43.5 -2q-46 -1 -86.5 13t-73 41t-55.5 65.5t-34 86.5q-6 27 -6 56q0 55 22 109.5t59.5 97t87 69t104.5 26.5q30 0 61 -8.5t61 -28.5q3 -2 7.5 -8.5l9 -13.5l8 -12.5l3.5 -5.5v-13q-2 -1 -3 -9z" />
    <glyph glyph-name="D" unicode="D" horiz-adv-x="511" 
d="M87 524q54 12 107 12q72 0 134.5 -23.5t104.5 -74.5q17 -20 26 -41t14.5 -42.5t8 -45t5.5 -47.5q0 -72 -26.5 -122t-72 -82t-106 -46.5t-127.5 -14.5q-37 0 -61 13.5t-19 34.5q0 16 -1.5 48.5t-4 73t-6 84t-7 79.5t-6.5 60.5t-6 28.5q-10 21 -10 41q0 28 17 43.5t36 20.5
zM137 244l6.5 -83.5t7.5 -48t15 -21.5t28 -4q40 2 71.5 10.5t55.5 25t42.5 41t32.5 59.5t14 69q0 39 -18.5 69t-47 50t-63 30t-65.5 10q-37 0 -63 -14.5t-26 -43.5q0 -6 1.5 -23.5l3.5 -39.5t3.5 -45.5t1.5 -40.5z" />
    <glyph glyph-name="E" unicode="E" horiz-adv-x="472" 
d="M342 524q10 1 17.5 1.5t14 -1.5t12.5 -6.5t14 -14.5q9 -11 10 -21.5t-5.5 -18t-22.5 -10.5t-42 2q-11 2 -32.5 3.5t-45.5 1.5q-23 0 -46 -1.5t-42 -6t-31.5 -12t-13.5 -19.5q-3 -26 -3 -43q0 -23 12 -32.5t51 -9.5q19 0 51.5 2t66.5 2q36 0 67 -4.5t42 -18.5
q13 -16 13 -26q0 -17 -31 -21t-75 -4q-32 0 -65 -0.5t-61 -5t-46.5 -15.5t-20.5 -32q-1 -12 -2 -26t-1 -28q0 -17 2.5 -33t9 -27.5t18 -16.5t29.5 0q34 9 73.5 12.5t79.5 3.5h30q29 -1 48 -14t19 -27q0 -10 -12.5 -17.5t-42.5 -7.5q-44 0 -92 -4.5t-90 -12.5
q-26 -5 -52.5 -15t-47.5 -10q-19 0 -32 13t-16 51q-1 13 -1.5 25t-0.5 25q0 47 3.5 95t3.5 96q0 21 -1 41.5t-4 40.5q-2 8 -5 21.5t-6 29.5t-5 32t-2 30q0 22 7 32q8 12 26 16.5t42 4.5q27 0 59 -4l64 -8q31 -4 59.5 -6.5t51.5 -0.5z" />
    <glyph glyph-name="F" unicode="F" 
d="M285 520q14 0 26 1t23 1q16 0 29 -5t22 -22q6 -10 6.5 -17t-11.5 -15t-27.5 -9.5t-32.5 -1.5h-22.5t-21.5 -1q-36 -3 -63 -3t-44 -4.5t-25.5 -16t-8.5 -36.5q0 -22 6 -56q3 -17 26 -23.5t51 -6.5q20 0 38 2.5t29 4.5q12 3 24.5 1t23 -7.5t17 -14.5t6.5 -21q0 -14 -11 -29
q-5 -6 -15.5 -8.5t-24.5 -2.5q-23 0 -51 3t-54 3q-28 0 -48.5 -7t-24.5 -29q-2 -11 -0.5 -25t3.5 -30.5t4.5 -33.5t2.5 -34q0 -11 -1 -20.5t-4 -19.5q-5 -14 -13 -20t-19 -6t-21.5 5t-18 13.5t-11.5 18.5t-1 21q8 27 10.5 64t2.5 76q0 38 -1.5 73.5t-2.5 62.5
q-2 35 -11.5 69.5t-4.5 66.5q4 25 34 32t69 7q27 0 54.5 -1.5t50.5 -1.5q22 0 36 3z" />
    <glyph glyph-name="G" unicode="G" horiz-adv-x="557" 
d="M456 483q-1 -23 -6 -31.5t-13 -8.5t-17 4t-17 7q-21 7 -37.5 8t-17.5 1q-47 0 -81.5 -6.5t-61.5 -25t-49 -53t-43 -90.5q-8 -24 -8 -47q0 -32 12 -64.5t33.5 -59t50 -43t61.5 -16.5q20 0 44.5 5t48.5 14.5t44 23.5t30 33q7 10 7 27l1 37q0 13 -15.5 17.5t-39.5 4.5
q-31 0 -67 -4t-62 -4q-27 0 -30 8q-6 19 6.5 32t35.5 22t53.5 14t60.5 7.5t56.5 3t42.5 0.5t26.5 -10t17.5 -26.5t10 -37t3 -40.5q0 -23 -3.5 -43.5t-9.5 -31.5q-16 -29 -41.5 -51.5t-56.5 -37.5t-66.5 -23t-71.5 -8q-56 0 -108 19t-87 59q-36 39 -52.5 84.5t-16.5 92.5
q0 56 22 109.5t60.5 95.5t91.5 67.5t115 25.5q20 0 45.5 -3t47.5 -10t37 -18.5t15 -28.5z" />
    <glyph glyph-name="H" unicode="H" horiz-adv-x="488" 
d="M119 117v-14.5t1 -21.5t1.5 -20t2.5 -9q5 -26 -7 -40t-27 -14q-8 0 -16.5 4.5t-13.5 14.5q-5 9 -3.5 24.5t1.5 31.5q0 29 -2 59t-3 59q0 21 0.5 44.5t0.5 46.5q0 34 -2.5 66t-10.5 61q-1 4 -4 19.5t-5.5 33t-3 31.5t3.5 16q0 11 10 15t22.5 1t24.5 -12t15 -23
q4 -18 6.5 -39t4 -42t2 -39.5t0.5 -31.5q0 -14 9 -17.5t23 -5.5q8 -2 16 -2h16q24 0 52 2.5t59 2.5q17 1 33 4t30 11q8 4 11 16.5t3 28.5q0 23 -3.5 48.5t-4.5 39.5q-2 32 3 47.5t22 19.5q10 3 20 1t17.5 -8.5t11.5 -18t1 -27.5q-1 -42 1 -81l4 -80q1 -26 0.5 -55.5
t-0.5 -59.5q0 -27 1 -53t5 -47q2 -14 3.5 -25.5t1.5 -22.5q0 -26 -6 -41.5t-14 -16.5q-34 0 -43.5 9.5t-13.5 20.5q1 19 5 53t4 69q0 20 -2.5 37.5t-8.5 31.5q-7 15 -20 18t-31 1q-27 -2 -66.5 -1.5t-75.5 -2.5q-22 -2 -35 -5t-19 -9t-7 -16.5t0 -28.5v-58v0z" />
    <glyph glyph-name="i" unicode="i" horiz-adv-x="191" 
d="M134 275q1 -11 1 -20.5v-18.5q0 -35 -2 -58.5t-1 -31.5t1 -15v-15q0 -13 -0.5 -24.5t0.5 -23.5q2 -33 -5 -46.5t-18 -13.5q-8 0 -17.5 7t-17 18t-12.5 25t-5 28q1 39 3 78t2 79v22.5t-1 22.5q-1 16 -1 38t-1 45t-3 44t-6 36q-11 34 1.5 53.5t31.5 19.5q14 0 27 -13
t18 -43q1 -8 2.5 -16.5t0.5 -20.5q-1 -15 -0.5 -35t1.5 -41t1.5 -42t-0.5 -38z" />
    <glyph glyph-name="J" unicode="J" horiz-adv-x="415" 
d="M377 418q1 -17 1.5 -32.5t0.5 -32.5q0 -63 -5 -124t-12 -117l-2 -5t-4 -12t-4 -13t-3 -8q-12 -25 -26.5 -39t-31.5 -21.5t-39 -9.5t-49 -2q-20 0 -48.5 7l-48.5 12q-20 6 -34 18.5t-23.5 29t-14 35.5t-4.5 38v33q0 16 1.5 29.5t6.5 24.5t15 18.5t27 12.5q31 8 28 -40
q0 -13 -5 -28t-5 -29q0 -43 23 -61.5t72 -18.5l7 0.5t16 1l17.5 1t10.5 1.5q20 9 32.5 27t20 42.5t10 54.5t2.5 62q0 47 -3 94t-4 85q0 9 -4 22t-6 25t-0.5 21t11.5 10q24 0 39 -10t22.5 -26t10 -36t2.5 -40z" />
    <glyph glyph-name="K" unicode="K" horiz-adv-x="450" 
d="M111 345q1 -24 5 -34.5t11 -10.5t17 10t21.5 24t22.5 29t22 26q18 18 34 43.5l32 49t34 40.5t40 17q14 0 28 -7q16 -8 13 -24.5t-15 -34.5t-27.5 -35.5t-24.5 -28.5q-15 -20 -32.5 -38.5l-33.5 -37t-28.5 -37t-17.5 -37.5q-1 -5 2.5 -11.5t9.5 -13l12.5 -13t11.5 -12.5
q13 -15 41 -34.5l57.5 -39.5t54 -40.5t30.5 -37.5q1 -5 -3.5 -11.5t-12 -12.5t-17 -10t-17.5 -4q-20 -1 -44.5 15t-51 39l-54 48t-52.5 42q-32 22 -46 22q-11 0 -13.5 -13.5t-1.5 -42.5q1 -20 2.5 -41t1.5 -39q0 -15 -2 -27.5t-7.5 -19.5t-15.5 -8.5t-26 5.5
q-7 3 -11.5 19.5t-6.5 41t-3 54.5t-1 61q0 23 0.5 44.5t0.5 40.5q0 17 -0.5 31t-1.5 23q-1 13 -3 34.5t-4 45.5t-3.5 48t-1.5 43q0 25 3 34q3 7 11 10.5t19 3.5q14 0 26 -6t17 -19q4 -12 5.5 -27t1.5 -32q0 -35 -4 -65.5t-4 -38.5z" />
    <glyph glyph-name="L" unicode="L" horiz-adv-x="354" 
d="M121 218q1 -7 1 -15v-16v-32q0 -28 2 -50t13 -25q1 -7 13 -7.5t30.5 1.5t40.5 5t43 3q20 0 37 -4.5t27 -16.5q13 -17 13 -28q0 -16 -20 -19.5t-41 -3.5h-29q-24 0 -49 -1t-48 -8q-41 -11 -61 -11q-26 0 -35 15t-9 45q0 22 3 52q1 13 1.5 26t0.5 26q0 35 -2 69t-2 67
q0 8 0.5 15t0.5 14q2 35 -3.5 76.5t-4.5 79.5q0 24 -2 38t5 22q9 9 21.5 8t24.5 -9.5t20.5 -23.5t10.5 -34q1 -11 1.5 -22.5t0.5 -25.5q0 -30 -1.5 -63.5t-2.5 -63.5t-1.5 -52.5t1.5 -30.5z" />
    <glyph glyph-name="M" unicode="M" horiz-adv-x="702" 
d="M315 303q3 -15 8.5 -35t12 -37.5t14 -30t14.5 -12.5q6 0 12 11.5t11 40.5q5 28 14 66.5l18 75.5l16.5 66.5t10.5 39.5q7 25 20.5 35.5t29.5 10.5t30.5 -8.5t24.5 -22.5q12 -18 15 -49q3 -30 8.5 -56.5t13 -51l15.5 -49.5t15 -53q2 -9 4.5 -24.5t6.5 -33.5t9 -38t12 -39
l17 -46.5t8 -37.5q0 -14 -9.5 -21.5t-32.5 -3.5q-15 2 -26 20t-19 45t-16 60t-17 66q-12 42 -18.5 80.5t-11.5 61.5q-8 35 -18 35q-8 0 -15.5 -19t-14.5 -44.5t-12.5 -50t-8.5 -35.5q-6 -21 -11.5 -46.5l-11.5 -51l-12 -49t-14 -39.5q-5 -11 -16.5 -15t-25.5 -5
q-12 -1 -24.5 -1t-21.5 14q-13 22 -23 57.5t-18 73.5l-15 72.5t-14 54.5q-13 34 -21 57t-16 23q-7 0 -15 -18t-20 -60q-11 -36 -18.5 -80.5t-16 -84.5t-18 -68.5t-24.5 -34.5q-12 -5 -21.5 -7.5t-17.5 -2.5q-13 0 -19 8.5t-5 29.5q1 25 9 59.5t18.5 68.5t21 62.5l15.5 42.5
q21 54 33.5 112.5t33.5 113.5q5 13 17.5 18.5t27.5 5.5q17 0 34 -7t24 -19q12 -21 18.5 -51t10.5 -59t7 -54t8 -36z" />
    <glyph glyph-name="N" unicode="N" horiz-adv-x="522" 
d="M307 312q6 -10 16 -23.5t19 -28.5l32 -49t19 -19t7 33v17t-1 20q-2 21 -0.5 47.5t1.5 52.5t-2.5 50t-10.5 41q-7 14 -10 28.5t-3 28.5q0 23 8.5 39.5t25.5 16.5q19 0 45 -26q5 -5 8.5 -33.5t6 -71.5t4.5 -97l4 -110t3.5 -109t4.5 -94q1 -11 -9.5 -16t-24.5 -5
q-18 0 -37.5 6t-25.5 14q-17 20 -33 52.5t-33 59.5l-57.5 92.5l-57.5 95.5q-21 36 -37.5 56t-27.5 20q-17 0 -17 -49v-19t2 -22t2 -26v-29v-62q0 -29 1.5 -56t6.5 -49t5 -36q0 -29 -12 -44t-27 -15q-16 0 -29.5 18t-13.5 56v116q0 56 -1.5 111t-6.5 103q-1 9 -4.5 22l-7 27
t-6.5 28.5t-3 27.5q0 19 8 32t30 17q17 3 30 8t29 -5q28 -17 54 -48t49.5 -66t43 -69.5z" />
    <glyph glyph-name="O" unicode="O" horiz-adv-x="613" 
d="M48 381q15 48 39.5 83t56.5 57t68.5 32.5t75.5 10.5q55 0 108.5 -19.5t96 -55t68.5 -85.5t26 -111q0 -20 -3 -39q-7 -46 -29.5 -88.5t-56 -76t-76 -57t-89.5 -32.5q-32 -6 -65 -6q-48 0 -94.5 16.5t-80.5 59.5q-38 48 -53.5 91t-15.5 88q0 31 6.5 63.5t17.5 68.5z
M221 454q-63 -35 -92.5 -91.5t-29.5 -115.5q0 -35 10.5 -67.5t31.5 -57t52 -39t72 -14.5q14 0 29.5 1.5t32.5 6.5q43 11 73 27.5t50.5 39t34.5 51t26 63.5q7 21 7 46q0 27 -7 52.5t-18 40.5q-28 40 -75 60.5t-98 20.5q-26 0 -51.5 -6t-47.5 -18z" />
    <glyph glyph-name="P" unicode="P" 
d="M58 213v43q0 32 -0.5 67t-3.5 54q-5 34 -12 65t-7 55q0 20 7.5 33t27.5 18q23 5 52 7.5t58 2.5h26.5t23.5 -2q40 -4 70.5 -20.5t51 -41t31 -54.5t10.5 -62q0 -30 -9.5 -60t-29.5 -56.5t-50 -47t-70 -31.5q-10 -3 -26.5 -3t-32 -2t-27 -9t-11.5 -23q0 -22 4 -48t4 -48
q0 -26 -10.5 -40.5t-42.5 -6.5q-16 4 -21.5 30t-7 59t-1.5 67t-4 54zM126 326q2 -24 8 -37.5t15 -20.5t20.5 -8.5t24.5 -0.5q25 2 40 5.5t25.5 9.5t18.5 14.5t17 19.5q32 38 32 74q0 22 -10 40t-26.5 31.5t-37.5 21t-42 7.5q-18 0 -35 -6t-31 -19q-12 -11 -17 -31.5
t-5 -48.5q0 -24 3 -51z" />
    <glyph glyph-name="Q" unicode="Q" horiz-adv-x="663" 
d="M578 489q31 -40 45 -82.5t16 -78.5q1 -8 1 -15v-14q0 -46 -10.5 -83.5t-37.5 -79.5q-16 -24 -23 -31t-7 -14q0 -5 4.5 -14.5t12.5 -29.5q9 -21 9 -34q0 -17 -15.5 -21.5t-44.5 -5.5q-7 0 -12.5 7t-12.5 15t-17 15t-25 7q-14 0 -31 -7q-52 -20 -105 -20t-100 19
q-95 39 -141 105t-46 143q0 70 37 141t111 131q20 16 53.5 23.5t73.5 7.5q38 0 78 -6t76.5 -17t65.5 -26.5t45 -34.5zM456 205q12 -16 22 -25.5t20 -9.5q11 0 21.5 12t23.5 40q10 21 15.5 42.5t5.5 47.5q0 25 -6 60q-3 18 -12.5 35t-23 31.5t-29.5 26.5t-32 21q-23 8 -45 11
t-44 3q-55 0 -101.5 -20t-81 -53t-54 -75t-19.5 -86q0 -50 28 -97t92 -80q25 -13 65 -13q26 0 49 4q35 5 48.5 13t13.5 19q0 10 -8.5 22.5t-17.5 28.5l-47 62l-29.5 39t-12.5 29q0 9 10 14.5t35 7.5q17 1 35 -12t33.5 -31.5t27.5 -37.5z" />
    <glyph glyph-name="R" unicode="R" horiz-adv-x="455" 
d="M61 215v64q0 29 -0.5 56.5t-3.5 43.5q-5 34 -12 65t-7 55q0 20 7.5 33t27.5 18q23 5 52.5 7.5t58.5 2.5q14 0 26 -0.5t24 -1.5q40 -4 71 -20t52 -40t32 -54t11 -62q0 -39 -16.5 -77.5t-51.5 -68.5q-19 -17 -33.5 -24.5t-14.5 -18.5q0 -8 9 -20t29 -32q14 -14 23.5 -19.5
t25.5 -16.5q22 -16 41.5 -27t19.5 -25q0 -8 -9.5 -20t-35.5 -19q-10 -3 -25 6t-31.5 22t-32 27t-25.5 22q-8 5 -22.5 15.5t-32.5 21.5q-42 24 -60 24q-21 0 -21 -29q0 -13 5 -38t5 -43q0 -23 -12 -35.5t-44 -4.5q-17 5 -21.5 37.5t-4.5 72.5v35q0 20 -0.5 38t-3.5 30z
M129 328q2 -24 8 -37.5t15 -20.5t20.5 -8.5t25.5 -0.5q24 2 39.5 5.5t26 9.5t18 14.5l17.5 19.5q17 20 24 38t7 35q0 22 -10.5 40.5t-27 32t-37.5 21t-42 7.5q-18 0 -34.5 -5.5t-30.5 -18.5q-12 -11 -16.5 -32t-4.5 -49q0 -12 0.5 -24.5t1.5 -26.5z" />
    <glyph glyph-name="S" unicode="S" horiz-adv-x="393" 
d="M324 485q-12 -11 -22.5 -15.5t-21.5 -4.5q-17 0 -33 6t-36 6q-13 0 -28.5 -4.5t-33.5 -16.5q-21 -14 -12 -36t34 -49.5t60 -59.5t66 -65.5t51 -68t15 -67.5q-4 -27 -22 -46.5t-45 -32t-59.5 -18.5t-65.5 -6q-47 0 -86 11t-54 31q-9 12 -10 22.5t4 18t14 12t19 4.5
q17 0 29 -13q7 -5 30.5 -9.5t52.5 -4.5q18 0 35 2.5t31 9.5t23 17.5t10 27.5q0 11 -12 29t-31 39t-42 43l-45 42.5l-39.5 37t-25.5 26.5q-19 23 -27 43t-8 37q0 29 19 51t48 37t64 23t67 8q23 0 42.5 -4t32 -12.5t16.5 -21t-4 -29.5z" />
    <glyph glyph-name="T" unicode="T" horiz-adv-x="371" 
d="M152 342q0 17 -0.5 33.5t-2.5 33.5q-2 18 -5.5 28.5t-11 16.5t-21 9t-35.5 5q-28 2 -47 8.5t-17 20.5q0 24 16 31.5t39 7.5q19 0 39 -2.5t35 -1.5q26 2 65 5.5t74 3.5q27 0 47 -3.5t26 -13.5q1 -2 4 -5.5t5.5 -8t3.5 -8.5t-2 -5q0 -14 -16.5 -17t-38 -3.5t-42.5 -2.5
t-31 -13q-8 -8 -10.5 -39t-2.5 -69q0 -23 0.5 -46t1.5 -43t1 -35.5v-22.5q-1 -23 2 -51.5t3 -56.5q0 -19 -2.5 -35t-10.5 -27q-15 -19 -29 -19q-9 0 -17 6.5t-14 15.5t-9.5 19.5t-3.5 19.5q0 38 6 80.5t6 83.5q0 14 -1.5 27t-3.5 25v48z" />
    <glyph glyph-name="U" unicode="U" horiz-adv-x="472" 
d="M45 508q-1 4 3 10t10.5 11t14.5 8.5t16 3.5q11 0 18.5 -8.5t9.5 -28.5q2 -29 0.5 -53.5t-2.5 -55.5q-1 -16 -1.5 -47.5t-0.5 -68.5q0 -27 1 -54t3 -50q3 -28 9 -38.5t18 -10.5q10 0 24 5t35 11q6 1 14.5 3t17 3.5t15.5 3t10 3.5q20 14 42.5 23.5t39.5 29.5q10 13 13 44.5
t3 66.5q0 27 -1 52t-2 40q-1 8 -3.5 32t-2.5 48q0 23 4 39.5t17 15.5q35 -2 46.5 -26t11.5 -56q0 -23 -3 -46t-5 -40q-1 -11 -1 -23v-26q0 -38 1.5 -78.5t3.5 -70.5q0 -9 1.5 -23.5t3 -31t2.5 -33t1 -30.5q0 -20 -3 -29q-7 -20 -26 -20q-16 0 -30.5 15t-13.5 41
q1 24 -3.5 33t-13.5 9q-11 0 -26.5 -8t-36.5 -15q-20 -6 -46 -15.5l-53 -19t-52 -17t-41 -9.5q-12 -1 -19 9.5t-10.5 28.5t-5 41t-1.5 46q0 26 0.5 49t0.5 34q-2 54 -5 110.5t-3 117.5q0 11 0.5 22.5t0.5 22.5z" />
    <glyph glyph-name="V" unicode="V" horiz-adv-x="388" 
d="M147 331l9.5 -29.5t9.5 -28.5q19 -63 30 -63q7 0 14 18t19 53q7 22 13 46.5l12 49.5q9 33 16.5 65t16 57t18.5 40.5t24 15.5q15 0 34 -22q12 -13 12 -30q0 -19 -10.5 -39.5t-18.5 -41.5l-38 -107t-31 -110q-4 -18 -9 -51.5t-13 -67t-21 -58t-33 -24.5q-13 0 -27 11
q-11 9 -21.5 35t-20.5 61.5t-20 76l-19 79t-18 70.5t-18 50q-3 6 -9 19.5t-12 30t-10.5 34.5t-4.5 32q0 18 9.5 26.5t33.5 -0.5q18 -7 31 -29t23 -51.5t17 -61t12 -56.5z" />
    <glyph glyph-name="W" unicode="W" horiz-adv-x="591" 
d="M98 320l10.5 -46.5t11.5 -42t12 -30.5t12 -12t12 13t12 45q2 9 6.5 31.5l10.5 52l13 61.5t14 59.5t12.5 46t9.5 21.5q27 21 50 21q26 0 44.5 -26t31 -65t21 -84.5l16 -84.5t16 -65t20.5 -26q6 0 19 31.5t27 76t26 94t18 86.5q6 38 17.5 53.5t23.5 15.5q10 0 18.5 -8
t14.5 -21.5t8.5 -30.5t-1.5 -36q-6 -29 -16 -59t-21.5 -61l-23 -62t-20.5 -61q-14 -46 -19.5 -89.5t-12.5 -81.5q-4 -17 -19.5 -21t-46.5 0q-23 3 -37 27.5t-23.5 57.5t-16 67t-13.5 55q-3 8 -7.5 30t-10.5 45t-13.5 40.5t-16.5 16.5q-10 -1 -18 -21t-15 -51t-14 -68.5
t-15 -73.5q-5 -26 -7.5 -51t-13.5 -42q-9 -14 -23.5 -22t-31.5 -8t-30 7q-14 7 -22.5 29.5t-15 49.5t-11 54t-9.5 44q-6 23 -19 62l-27 83t-26 87t-16 73q-3 21 8.5 24t27 -4t29.5 -20t17 -24q5 -25 12 -51.5l13.5 -49t11 -39.5t6.5 -22z" />
    <glyph glyph-name="X" unicode="X" horiz-adv-x="432" 
d="M292 368q-11 -26 -17.5 -40t-6.5 -26t7 -26t22 -40l17.5 -27l28 -42.5t30.5 -49t24.5 -47t10.5 -36.5t-11 -16q-32 -4 -51.5 9t-33 35t-25.5 48.5t-29 49.5t-27 34.5t-18 11.5q-9 0 -19 -15t-28 -46q-20 -34 -33.5 -68t-36.5 -63q-5 -6 -14 -8t-19 -1t-19.5 4.5
t-14.5 9.5q-9 10 -2 34t22.5 55t35.5 63.5l37 59.5l26 42t9 28q0 14 -10 30l-30 47l-26 36t-28 35q-18 21 -26 38.5t-8 31.5q0 15 8.5 23.5t22.5 8.5q20 0 43 -20t39 -65q21 -31 35 -46t25 -15t21.5 14.5t24.5 42.5l15.5 29.5t15.5 28.5q2 3 7 9t10 11l14 14q32 0 45.5 -12
t13.5 -31q0 -18 -9 -37q-14 -29 -34.5 -56t-33.5 -50z" />
    <glyph glyph-name="Y" unicode="Y" horiz-adv-x="427" 
d="M275 158q-1 -9 0 -24t1 -32t-1.5 -34t-5 -31t-10.5 -22.5t-19 -8.5q-18 0 -43 21q-7 6 -8 14t1 16t5 16.5t4 15.5q2 19 3.5 39.5t1.5 42.5q0 51 -10.5 99t-40.5 78l-34 31l-47.5 44.5t-44.5 45.5t-24 34q-6 19 10.5 28.5t35.5 9.5q11 0 20 -3.5t11 -11.5q9 -7 25 -28
t37 -42.5t45.5 -37.5t51.5 -13q13 1 30 22t35 46.5l35.5 48.5t32.5 29q11 5 23.5 -4.5t23.5 -26.5q7 -11 1 -25.5t-19.5 -30.5t-32 -34l-35.5 -36q-20 -22 -31.5 -49.5t-17.5 -58.5t-7.5 -64t-1.5 -64z" />
    <glyph glyph-name="Z" unicode="Z" horiz-adv-x="478" 
d="M127 537q24 1 54.5 3.5t60.5 6t56 8t41 9.5q26 9 48.5 1t36.5 -25q21 -24 21 -38q0 -11 -8 -20.5l-19 -23.5l-53 -69.5l-65 -89.5t-62.5 -93.5t-47.5 -81.5q-10 -19 -10 -29q0 -17 19 -19.5t46 -2.5q25 1 49 2.5t53 -0.5q14 -1 27.5 0.5t24.5 1.5q20 0 33 -9.5t17 -42.5
q2 -15 -20 -20t-55 -5q-35 0 -75.5 3t-70.5 3q-55 0 -100 -13q-21 -6 -43.5 -1t-38 16.5t-20 26.5t10.5 29q21 20 45.5 51t46.5 63l40.5 60.5t27.5 43.5l32.5 49l31.5 47.5t25.5 47t14.5 46.5q-8 3 -17.5 4t-19.5 1q-18 0 -38.5 -3t-41 -6.5t-41 -6t-39.5 -1.5
q-23 1 -32.5 11t-9.5 23q0 11 5.5 21.5t15 18t21 9t23.5 -5.5z" />
    <glyph glyph-name="bracketleft" unicode="[" horiz-adv-x="314" 
d="M207 636q18 3 28 1.5t15.5 -4.5t7 -6t3.5 -4q15 -15 15 -28q0 -9 -7.5 -15.5t-18 -10.5t-21.5 -5.5t-19 -1.5q-12 0 -22.5 0.5t-19.5 0.5q-15 0 -26 -2t-18 -9t-10.5 -20.5t-3.5 -35.5q0 -115 3.5 -230.5t7.5 -227.5q1 -13 15 -16t35 -3h30q16 0 32.5 -1.5t29.5 -7
t20.5 -16.5t7.5 -30q-1 -14 -23 -17t-48 -3h-30.5t-20.5 -3l-15.5 -5t-21.5 -6t-25 -5t-24 -2q-9 0 -16 1t-12 5q-13 10 -17.5 42.5t-4.5 80.5q0 33 1.5 72l3 81l3 85.5t1.5 85.5q0 32 -1 62.5t-4 58.5q-5 35 -12.5 64t-1.5 43q7 17 23.5 22.5t39.5 5.5q14 0 30 -1t33 -1
q14 0 29 1t29 5z" />
    <glyph glyph-name="bracketright" unicode="]" horiz-adv-x="348" 
d="M126 -76q-18 -3 -28.5 -1.5t-15.5 4.5t-7 6t-3 5q-15 15 -15 28q0 9 7.5 15t18 10t21.5 5.5t19 1.5q12 0 22 -0.5t19 -0.5q16 0 27 2t18 9t10.5 20.5t3.5 36.5q0 114 -3.5 229.5t-7.5 227.5q-1 13 -15 16t-35 3h-30q-17 0 -33 1.5t-29 7t-20.5 16.5t-7.5 30
q1 14 21.5 17.5t45.5 3.5h32.5t22.5 2l15.5 5t21.5 6t25 5t24 2q9 0 16 -1t12 -5q13 -10 17.5 -42.5t4.5 -80.5q0 -33 -1.5 -72l-3 -81l-3 -85t-1.5 -85q0 -32 1 -62.5t4 -58.5q4 -36 12 -64.5t2 -43.5q-7 -17 -23 -22t-39 -5q-14 0 -29.5 0.5t-32.5 0.5q-15 0 -30 -1
t-30 -5z" />
    <glyph glyph-name="braceleft" unicode="{" horiz-adv-x="528" 
d="M418 489q18 -5 32 -23t14 -35q0 -22 -27 -23q-11 0 -26.5 9t-32 21t-32 24.5l-25.5 20.5l-50.5 37t-54.5 28q-5 1 -11 10.5t-4 12.5q-3 34 20 34q12 0 28.5 -8t35.5 -20.5l39 -27l38 -27.5t32.5 -22.5t23.5 -10.5zM445 195q21 6 29.5 -1t8.5 -19q0 -11 -6 -22.5
t-16 -16.5q-2 -5 -16.5 -15.5l-33 -23l-36 -23.5t-23.5 -17q-26 -25 -51.5 -47l-51.5 -43q-10 -8 -18 -10t-14 -0.5t-11 5t-9 7.5q-7 7 -10 14t0.5 15t14 18.5t30.5 24.5q14 10 29 23t29 22q38 26 78.5 57t76.5 52zM375 335q11 0 22.5 -4t19.5 -9q1 -1 3.5 -6.5t5 -12
t3.5 -12.5t0 -7q-3 -7 -13 -11.5t-21.5 -7t-23.5 -3.5t-20 -1q-49 0 -115.5 -2.5t-134.5 -10.5q-16 -2 -24.5 6t-11 19.5t-0.5 22t8 14.5l9 2q1 3 13.5 5.5t28 4.5t29.5 3t18 1q26 0 53.5 1.5t54.5 1.5h22t26.5 1l26.5 2t21 3z" />
    <glyph glyph-name="braceright" unicode="}" horiz-adv-x="545" 
d="M137 72q-18 5 -32 22t-14 34q0 10 6.5 16.5t21.5 7.5q11 0 26.5 -8.5t31.5 -20.5t31 -25t26 -20l24.5 -19t26 -19t27.5 -16.5t27 -11.5q5 -1 11 -10t5 -12q2 -19 -4 -26.5t-17 -7.5q-18 0 -46 17t-57.5 38l-55 39.5t-38.5 21.5zM110 366q-21 -6 -29.5 1.5t-8.5 18.5t6 22
t16 16q1 4 16 15l33.5 23.5l36 24t23.5 17.5l51.5 46t52.5 43q19 16 31 11t20 -12q7 -8 10 -15t0 -15t-13.5 -18.5t-30.5 -24.5q-14 -9 -29.5 -22t-29.5 -23l-38.5 -27.5l-39.5 -29l-39.5 -28t-37.5 -23.5zM180 226q-23 0 -41 13q-2 1 -4.5 6.5t-4.5 11.5t-3.5 11.5
t-0.5 7.5q3 7 13 11.5t22 7.5t24 4t20 1h30q47 0 104 2.5t115 9.5q16 2 25 -6t11.5 -19t0 -21.5t-7.5 -14.5l-9 -2q-1 -3 -13.5 -5.5t-28 -4.5t-30 -3t-18.5 -1q-26 0 -53 -2t-54 -2h-22.5t-27 -0.5t-26.5 -1.5t-21 -3z" />
    <glyph glyph-name="bar" unicode="|" horiz-adv-x="230" 
d="M159 292q1 -14 1 -27.5v-25.5q0 -48 -2 -79.5t-1 -43.5q1 -11 1 -20.5v-19.5q0 -17 -0.5 -33t0.5 -32q2 -45 -5 -63t-18 -18q-8 0 -17.5 9t-17 24t-12.5 34t-5 38q1 53 3 105.5t2 107.5v30.5t-1 31.5q-1 22 -1 52t-1 60.5t-3 59.5t-6 49q-4 17 -4 36q0 30 11.5 47
t25.5 17t27 -18t18 -59q2 -10 3 -22t0 -28q-1 -17 -0.5 -39.5l1 -47l1 -49.5t0.5 -47v-29v0z" />
    <glyph glyph-name="cent" unicode="&#xa2;" horiz-adv-x="443" 
d="M283 521q2 -13 2.5 -22t0.5 -16q0 -14 -1 -19t2 -8.5t11.5 -7.5t27.5 -14q8 -5 15 -11t10.5 -12t2.5 -11.5t-9 -10.5q-9 -8 -21 -11t-26 -3t-28.5 1t-28.5 1q-16 0 -31.5 -3t-29 -12.5t-24 -27.5t-16.5 -47q-5 -25 2 -47.5t22 -39t37 -25.5t47 -7q32 3 57.5 13t48.5 28
q22 17 36 7.5t14 -29.5q0 -22 -17 -38q-9 -8 -18.5 -15.5t-20.5 -12.5q-17 -9 -29 -13.5t-20.5 -8.5t-12.5 -10.5t-4 -19.5q0 -15 4 -35q2 -5 3 -11t3 -12q1 -14 -12.5 -21.5t-29.5 -7.5q-15 0 -27 6t-14 18q-2 5 -2 10t-1 11q-3 35 -3.5 48t-5.5 17.5t-17 7t-38 17.5
q-43 24 -69 67.5t-26 91.5q0 32 13.5 63.5t42.5 58.5q12 11 24 19.5t24 15.5q15 8 24.5 12t15.5 7t8 8t2 15q0 6 -0.5 14.5t-1.5 19.5q-3 30 1 50.5t30 18.5q22 -7 36 -21.5t17 -35.5z" />
    <glyph glyph-name="percent" unicode="%" horiz-adv-x="736" 
d="M397 267q-28 -52 -49.5 -83.5t-26.5 -42.5q-11 -22 -22.5 -40.5t-21.5 -37.5q-14 -27 -26 -38t-21 -11q-11 0 -17 13t-6 33q0 14 3.5 29.5t11.5 28.5l61 97.5t59 101.5l21.5 38l25 44.5t22.5 44.5t15 39q8 31 24.5 45.5t31.5 14.5q13 0 22.5 -10t9.5 -30q0 -19 -10 -43
q-3 -8 -7 -17.5t-12 -20.5q-9 -14 -20 -34l-22.5 -41.5l-23.5 -42.5zM610 283q16 -13 32 -28t29 -32t20.5 -36t7.5 -38q0 -28 -17 -53q-22 -33 -42 -50.5t-42.5 -25.5t-49 -9t-62.5 -1q-18 0 -31.5 8t-24.5 20t-19.5 26.5l-15.5 27.5q-12 24 -12 46q0 29 15.5 56.5
t33.5 54.5q14 21 46.5 37t67.5 16q17 0 33.5 -4t30.5 -15zM463 175q-5 -20 -5 -35q0 -14 4.5 -26.5t16.5 -23.5q7 -7 18.5 -10t25.5 -3q13 0 26.5 3t25.5 8t21 12.5t13 16.5q7 16 12 30t0 32q-7 26 -29 38.5t-48 12.5q-27 0 -50.5 -13.5t-30.5 -41.5zM295 525q25 -14 30 -40
t5 -54q0 -27 -2.5 -46t-15.5 -41q-10 -16 -28 -29.5t-40 -23.5t-46 -15.5t-46 -5.5q-19 0 -37 5q-44 14 -62 39t-18 55q0 31 16.5 63t42.5 58t59.5 43t68.5 17q39 0 73 -25zM248 406q5 13 2 27t-10.5 25.5t-17.5 18t-19 3.5q-21 -6 -42.5 -25t-30.5 -46q-7 -21 -7 -37
q0 -20 10 -29t25 -9q13 0 27.5 6t27.5 15.5t22.5 22.5t12.5 28z" />
    <glyph glyph-name="ampersand" unicode="&#x26;" horiz-adv-x="477" 
d="M268 301q2 -8 6.5 -22t11 -27.5t16.5 -23t22 -7.5q11 2 18 15.5l15.5 29t20.5 28.5t33 14t29.5 -6t8.5 -19q0 -11 -6 -26t-15 -32t-20 -34.5t-20 -34.5q-8 -15 1 -26.5t18 -21.5q14 -14 14 -29q0 -13 -10 -21.5t-24 -8.5q-11 0 -24 6.5t-25 21.5q-5 6 -10 5.5t-11 -4.5
t-12.5 -9.5t-13.5 -9.5q-38 -23 -77 -37t-74 -12q-23 1 -43.5 13t-35.5 30.5t-22 40.5t-2 44q6 28 16.5 48.5t23 39l26 37t24.5 41.5q5 10 2.5 21t-8 22l-11.5 22t-9 22q-5 25 -5 43q0 31 10.5 53t27.5 36t38.5 21t44.5 7q24 0 48 -7.5t42.5 -21.5t30 -34t11.5 -45
q0 -29 -18 -64.5t-63 -77.5zM260 433q8 23 -1.5 37t-26.5 14q-14 0 -27 -10q-8 -5 -13 -10.5l-11 -12.5q-8 -8 -5.5 -20t5.5 -21q2 -8 9.5 -18.5t7.5 -12.5q4 -7 11.5 -8t16.5 5t18 20t16 37zM220 210q-2 3 -8 9.5t-7 8.5q-3 0 -6 4t-7 4q-1 3 -5.5 1t-9.5 -6.5l-10 -9
t-6 -6.5q-15 -14 -21 -31t-13 -35q-2 -8 -4.5 -15t-2.5 -15t3.5 -14.5t3.5 -13.5q1 0 4 -2.5t7 -4.5q4 -4 10 -7q15 0 36 5.5t32 14.5q2 1 8 6.5l12.5 11.5t12 12t6.5 9q8 17 -4 34.5t-31 39.5z" />
    <glyph glyph-name="parenleft" unicode="(" horiz-adv-x="315" 
d="M197 602q7 3 21 0t26.5 -10t19 -16.5t-2.5 -19.5q-7 -8 -16 -19.5t-20 -19.5q-10 -7 -21 -18.5t-21.5 -25t-19.5 -28t-14 -26.5q-11 -26 -15.5 -60t-4.5 -70q0 -42 5.5 -82t15.5 -71q15 -50 43 -77.5t65 -50.5q24 -16 19 -30q-3 -11 -15 -16t-27 -5q-18 0 -37 6t-31 17
q-38 33 -66 79.5t-44 100.5q-11 39 -11 93q0 48 9 103t27.5 104.5t47 87.5t67.5 54z" />
    <glyph glyph-name="parenright" unicode=")" horiz-adv-x="348" 
d="M147 -41q-7 -3 -21 -0.5t-26.5 9.5t-19 16.5t2.5 20.5q7 8 16 19.5t20 18.5q10 7 21 18.5t21.5 25.5t19.5 28.5t14 26.5q11 26 15.5 60.5t4.5 71.5q0 42 -5 81t-15 70q-16 49 -44 76.5t-65 51.5q-23 14 -19 30q3 11 14.5 15.5t26.5 4.5q18 0 37.5 -6t31.5 -17
q38 -33 66 -79t44 -100q11 -39 11 -96q0 -48 -9 -102.5t-27.5 -103t-47 -86.5t-67.5 -54z" />
    <glyph glyph-name="less" unicode="&#x3c;" horiz-adv-x="388" 
d="M225 376q-21 -29 -39.5 -50.5t-29 -38t-11 -29t13.5 -21.5q1 -3 19.5 -21l40.5 -39l41.5 -38.5t22.5 -18.5q4 -1 15.5 -10t23 -22t20.5 -28t9 -27q0 -11 -9 -18.5t-32 -9.5q-25 -1 -54.5 25t-62.5 60.5t-68 67.5t-70 47q-14 6 -14 25q0 15 9 33.5t25 33.5q17 16 41 48
l48.5 68l47.5 70.5l38 55.5q5 8 12.5 12t15.5 4q12 0 22.5 -9t15.5 -24q3 -12 -8.5 -32t-27.5 -42t-32 -41.5t-23 -30.5z" />
    <glyph glyph-name="greater" unicode="&#x3e;" horiz-adv-x="404" 
d="M184 185q21 28 39 49.5t29 38t11.5 29t-13.5 22.5q-1 2 -9.5 11t-22 22l-28.5 27.5l-28.5 26.5l-23.5 20.5t-12 8.5q-5 1 -16 10t-23 22.5t-21 28.5t-9 27q0 11 9 18t32 9q25 1 55 -24.5t63 -60l68 -68t70 -47.5q10 -4 12.5 -14t-0.5 -23t-11.5 -27.5t-20.5 -26.5
q-17 -17 -41 -49l-49 -68l-47.5 -70l-37.5 -56q-12 -16 -28 -16q-12 0 -22.5 9t-15.5 24q-3 12 8 32.5t27 42t32.5 41.5t23.5 31z" />
    <glyph glyph-name="I" unicode="I" horiz-adv-x="467" 
d="M269 263q1 -10 1 -19v-17q0 -32 -2 -53.5t-1 -29.5q1 -21 1.5 -33t2 -19t6.5 -9t16 -2q7 0 16.5 0.5t23.5 0.5h44q0 -1 9 -1t20 -1t21 -3.5t13 -6.5q4 -6 4.5 -13t-0.5 -15q-3 -21 -12.5 -26.5t-23.5 -5.5q-8 0 -18.5 0.5t-21.5 0.5q-25 -2 -46 -2t-45 -1q-20 -1 -55 -1
t-66 -4q-17 -2 -35.5 -7.5t-35.5 -5.5t-28.5 9.5t-13.5 35.5q-1 12 3.5 19t12.5 11t17.5 6t17.5 3q12 1 23.5 1h23.5q19 0 29.5 2t15.5 9.5t6 21.5t2 39l2 47.5t1 47.5v16.5t-1 17.5q-1 22 -1 52.5t-2 58.5q-3 32 -7 42t-17 10q-8 0 -19.5 -2t-28.5 -4q-15 -2 -27.5 -1.5
t-25.5 6.5q-14 6 -21 17t-7 22t5.5 20.5t16.5 14.5q8 4 17.5 5t20.5 1q26 0 55 -4.5t49 -4.5q21 0 40.5 0.5t38.5 0.5h19t18 -1l21 2t20 1q20 0 34 -6t18 -23q3 -14 -0.5 -22.5t-11 -13t-18.5 -6t-22 -1.5q-8 0 -16 0.5t-14 0.5q-14 0 -24 1t-18 1q-15 0 -19.5 -9t-3.5 -41
l2.5 -64.5t0.5 -65.5z" />
    <glyph glyph-name="zero" unicode="0" horiz-adv-x="680" 
d="M588 481q31 -40 45 -82.5t16 -78.5q2 -72 -19 -132.5t-59.5 -104.5t-92.5 -68.5t-118 -24.5q-61 0 -125 24q-96 36 -142.5 101.5t-46.5 142.5q0 71 38 143.5t112 132.5q20 16 53.5 23.5t73.5 7.5q38 0 78 -6t76.5 -17t65.5 -26.5t45 -34.5zM360 72q69 11 118.5 49.5
t74.5 92.5q10 21 15 42.5t5 47.5q0 14 -1 28.5t-4 31.5q-3 18 -12.5 35t-23 31.5t-29.5 26.5t-32 21q-23 8 -45 11t-44 3q-55 0 -101.5 -20t-81 -53t-54 -75t-19.5 -86q0 -50 28 -97t92 -80q25 -13 64 -13q12 0 24.5 1t25.5 3z" />
    <glyph glyph-name="one" unicode="1" horiz-adv-x="415" 
d="M252 270q1 -31 -2 -62.5t-3 -59.5q0 -20 3.5 -36.5t11.5 -27.5q2 -2 19.5 0t39.5 2q15 0 29.5 -2t23.5 -8t10.5 -17t-9.5 -28q-3 -5 -29.5 -10t-64 -8.5t-80 -6t-76.5 -2.5q-27 0 -45.5 1.5t-23.5 5.5q-9 7 -10 18t4 21.5t14 18t19 8.5q11 2 28.5 -1t34.5 -3
q14 0 23.5 4.5t9.5 16.5q2 46 6.5 109.5t4.5 126.5q0 32 -1.5 60.5t-6.5 52.5q-1 3 -11.5 1.5t-25.5 -5.5t-32 -7.5t-30 -3.5q-16 0 -22.5 8t5.5 30q6 10 18.5 20t28 19t32.5 17t32 16q13 6 19.5 9.5t11.5 3.5t11 -3t18 -8q7 -3 12 -8t7 -13q1 -9 1 -17.5v-16.5v-18t2 -18
q1 -8 1.5 -16t0.5 -16q0 -35 -4.5 -73.5t-4.5 -73.5z" />
    <glyph glyph-name="two" unicode="2" horiz-adv-x="467" 
d="M98 494q35 24 76.5 36.5t79.5 12.5q28 0 52.5 -7t43 -21.5t29 -36.5t10.5 -53q0 -15 -3 -33q-7 -38 -19 -66t-28 -50.5t-35 -43l-39 -42.5q-5 -5 -17 -19.5l-23.5 -29.5t-18 -26.5t0.5 -11.5q2 -5 28 -2t58.5 7.5t62.5 7.5t41 0q4 2 10.5 -1t12.5 -10t10.5 -15.5
t4.5 -17.5q0 -10 -7.5 -18t-27.5 -11q-41 -5 -87.5 -6.5t-85.5 -14.5q-27 -10 -58 -20t-57 -10t-41 15t-10 57q1 11 7 19.5t15 17t20 17.5t22 21l61 67.5t59 76.5q13 21 28 43t25.5 43.5t15 41.5t-2.5 37q-4 9 -20.5 15t-38.5 6q-12 0 -25 -2.5t-24 -7.5q-20 -10 -34 -19.5
l-26.5 -18.5t-25 -16t-28.5 -12q-22 -7 -32 -6.5t-18 8.5q-8 9 -9.5 22.5t5.5 27.5t22.5 27t40.5 22z" />
    <glyph glyph-name="three" unicode="3" horiz-adv-x="466" 
d="M114 561q24 5 47.5 7.5t46.5 2.5q68 0 117 -23t63 -68q3 -11 5 -25t2 -29q0 -22 -4 -44.5t-15 -40.5q-6 -9 -12 -15t-11 -10t-8.5 -7.5t-3.5 -7.5q0 -5 6 -12.5t21 -21.5l26.5 -23.5t21.5 -28.5q11 -22 15.5 -42t4.5 -38q0 -36 -17 -63.5t-45.5 -47t-66 -31t-79.5 -15.5
q-13 -1 -34.5 2.5t-45.5 10t-45.5 15.5t-34.5 19.5t-13.5 21t17.5 20.5q11 6 23 10.5t23 -0.5q19 -8 47.5 -16t60.5 -8q34 0 67 14.5t56 52.5q7 12 2.5 30t-15.5 35t-25 31.5t-25 20.5q-12 6 -34 8t-47 3t-50.5 3t-43 8.5t-24.5 19.5t5 36q5 10 26.5 13t50 6t59 9.5
t53.5 22.5q17 12 26 29.5t9 34.5q0 14 -6 26t-19 19q-31 17 -65 17q-26 0 -50 -7.5l-46 -15t-40 -12.5t-32 1q-32 13 -32 34q0 11 8 22t21 20.5t28.5 16.5t30.5 10z" />
    <glyph glyph-name="four" unicode="4" horiz-adv-x="455" 
d="M352 379q0 -12 -1 -24.5t-1 -24.5q0 -14 4 -26.5t17 -21.5q6 -5 16.5 -7.5t15.5 -10.5q11 -13 9 -30t-25 -24q-8 -2 -15.5 -3.5t-12.5 -6.5q-8 -8 -11 -21t-3 -28q0 -28 6 -60t6 -57q0 -16 -4.5 -27t-16.5 -14q-28 -8 -42.5 3t-20.5 29t-6 38t1 31q2 23 3 39t1 27
q0 12 -2 19t-8 11t-16 6t-25 4q-9 1 -21.5 -1t-26 -5t-26.5 -6.5t-23 -6.5q-38 -10 -59 8t-14 54q1 3 2 12t1 13q0 27 1 57t1 60t-2 59t-7 55q-5 24 6 35.5t27 11.5t30.5 -10.5t17.5 -29.5q1 -11 0 -27.5t-2.5 -36.5l-3 -41.5t-1.5 -42.5q0 -18 2 -34.5t6.5 -29t12.5 -19.5
t21 -7h26t30 2.5t27 7t17 13.5q6 11 8.5 27t2.5 36q0 30 -3 63.5t-3 62.5q0 22 3 38t13 23q11 8 20.5 13.5t17.5 5.5q13 0 19 -24q3 -15 5.5 -35t3.5 -42t1.5 -43t0.5 -37z" />
    <glyph glyph-name="five" unicode="5" horiz-adv-x="444" 
d="M318 533q41 0 61 -8t33 -35q5 -10 -0.5 -16.5t-18 -10.5t-29.5 -5.5t-34 -1.5h-16t-15 1q-13 1 -39 5t-52 4q-23 0 -39.5 -5.5t-18.5 -22.5q-3 -29 -3 -46q0 -29 8.5 -39.5t26.5 -14.5t46 -7t67 -16q51 -17 76.5 -53.5t25.5 -82.5q0 -28 -11 -61q-23 -67 -71.5 -97
t-103.5 -30q-52 0 -95 22q-14 8 -23 20t-9 26q0 10 5.5 19t18.5 14q10 4 24 -1t30.5 -11.5t35.5 -11t40 1.5q37 11 60 39.5t23 61.5q0 18 -8.5 36t-26.5 33q-14 11 -28.5 15.5t-29.5 4.5q-26 0 -50.5 -7.5t-41.5 -8.5q-13 0 -26 2t-23.5 8t-17 16t-6.5 25q0 10 0.5 26.5
t0.5 36.5q0 32 -3 65t-13 53q-5 9 -3 19t9 18t18 14t24 8q15 2 32 2h35q24 0 48 -0.5t45 -1.5t37 -1.5t25 -0.5z" />
    <glyph glyph-name="six" unicode="6" horiz-adv-x="477" 
d="M270 485l-33.5 -25t-27.5 -23.5t-25 -28.5t-25 -41q-11 -21 -4.5 -28.5t23.5 -7.5q18 0 43.5 4t51.5 4t46 -7q42 -16 65 -33.5t33.5 -38t12.5 -44t2 -51.5q0 -43 -16 -75.5t-43 -54t-62 -32.5t-71 -11q-53 0 -101 22.5t-74 67.5q-16 27 -23.5 59.5t-7.5 67.5
q0 57 17.5 112t46.5 97q4 6 24 28t45.5 46.5t52 44t44.5 19.5q23 0 23 -38q0 -10 -1.5 -16t-15.5 -17zM352 226q-23 20 -47.5 32.5t-56.5 12.5q-23 0 -48 -7q-42 -11 -63.5 -40.5t-21.5 -61.5t21 -58t65 -32q46 -6 87 8t66 49q5 7 8 20t3 28q0 14 -2.5 26.5t-10.5 22.5z" />
    <glyph glyph-name="seven" unicode="7" horiz-adv-x="382" 
d="M101 525q13 -3 37.5 -1t54 5t60 6.5t57.5 3.5q31 0 51.5 -7t20.5 -27q0 -15 -15 -39q-17 -27 -34.5 -59.5t-33.5 -67t-30 -69t-25 -66.5l-32.5 -88l-32.5 -86q-6 -14 -19 -23.5t-27 -9.5q-21 0 -30 23q-8 20 4 55t30.5 73t38.5 73t29 55q11 25 21.5 54l20.5 58t10 46
t-10.5 22.5t-30.5 4.5l-55 -1q-16 0 -32.5 -2t-31 -3.5t-26.5 -2t-19 2.5q-29 12 -29 31q0 14 19.5 26t58.5 13z" />
    <glyph glyph-name="eight" unicode="8" horiz-adv-x="489" 
d="M84 242l16 19t5 12q0 8 -9.5 21.5t-24.5 46.5q-10 23 -10 49q0 39 20 76.5t52 60.5q26 19 55 28t59 9q36 0 70.5 -12t63 -34t48 -53.5t25.5 -70.5q2 -16 -1.5 -36.5t-11.5 -31.5q-18 -25 -27.5 -33t-9.5 -16q0 -7 8 -19.5t25 -41.5q20 -34 20 -73q0 -32 -13.5 -65
t-42.5 -62q-20 -20 -56 -29.5t-78 -9.5q-29 0 -59 4.5t-56.5 13t-49 20.5t-36.5 28q-18 20 -25.5 40.5t-7.5 41.5q0 32 14 62t37 55zM262 484q-10 2 -23 0t-26.5 -5.5t-25.5 -9t-19 -11.5q-17 -14 -24.5 -29.5t-7.5 -32.5q0 -43 41 -73q24 -17 59 -17q22 0 45 6.5t42.5 17.5
t33.5 25.5t19 30.5q6 18 -3 36t-26 31.5t-40 22t-45 8.5zM255 231q-11 2 -26 0t-30 -6t-29 -9.5t-22 -11.5q-19 -14 -28 -31t-9 -34q0 -44 47 -75q14 -10 31.5 -14t36.5 -4q25 0 51.5 7t49 18.5t38.5 26.5t22 31q6 19 -4 37.5t-30 32.5t-46.5 23t-51.5 9z" />
    <glyph glyph-name="nine" unicode="9" horiz-adv-x="455" 
d="M194 64l33.5 24.5t27 23t24.5 29t26 41.5q11 21 5 28t-23 7t-42.5 -4t-51.5 -4q-13 0 -25 1.5t-23 6.5q-42 16 -65 33.5t-33.5 37.5t-12.5 43.5t-2 51.5q0 43 16.5 75.5t43.5 54t62 32.5t71 11q53 0 100.5 -22.5t74.5 -67.5q16 -27 23.5 -59t7.5 -67q0 -57 -17.5 -112
t-46.5 -97l-24.5 -28.5t-45.5 -47t-52.5 -44t-44.5 -19.5q-23 0 -23 38q0 10 1.5 16.5t15.5 17.5zM112 322q24 -20 47.5 -32t54.5 -12q25 0 50 7q43 11 64.5 40t21.5 61t-21 58t-66 32q-46 6 -86.5 -8t-66.5 -48q-5 -6 -8 -19.5t-3 -28.5q0 -14 3 -27t10 -23z" />
    <glyph glyph-name="comma" unicode="," horiz-adv-x="208" 
d="M144 34q-2 -9 -5.5 -21.5t-9 -24.5t-14 -21t-20.5 -10q-32 -3 -38.5 9.5t4.5 38.5q9 20 17 42.5t8 45.5q0 7 -0.5 16t-0.5 19q0 21 6 38.5t28 17.5q24 0 33 -14.5t9 -37.5t-6 -50z" />
    <glyph glyph-name="question" unicode="?" horiz-adv-x="422" 
d="M180 572q35 0 72 -14t67 -38t49.5 -54.5t19.5 -63.5q0 -41 -33 -75q-8 -8 -23.5 -15.5t-33.5 -15t-37 -14.5t-34.5 -14t-26 -14t-11.5 -15q-1 -11 -0.5 -22.5t-2 -20.5t-8.5 -15t-21 -6q-20 0 -37 6.5t-17 30.5q0 6 0.5 13t0.5 16q0 12 -1.5 26t-6.5 29q-3 9 1.5 21
t13 21t21 13.5t26.5 -0.5q12 -4 35.5 0t47.5 14.5t41.5 25t17.5 31.5q0 14 -14.5 28t-49.5 28q-12 5 -22.5 6.5t-21.5 1.5q-16 0 -32 -3.5t-36 -8.5q-11 -3 -24.5 -5t-26.5 -2q-23 0 -37.5 10.5t-3.5 40.5q5 13 23.5 23.5t42 17t46 10t36.5 3.5zM100 35q0 -12 14.5 -20.5
t25.5 -10.5q22 -4 40.5 1t18.5 32q0 10 -2.5 20t-8.5 17q-27 31 -51 31q-17 0 -27 -17.5t-10 -52.5z" />
    <glyph glyph-name="ellipsis" unicode="&#x2026;" horiz-adv-x="586" 
d="M433 54q0 35 10 52.5t27 17.5q24 0 51 -32q6 -6 8.5 -16.5t2.5 -19.5q0 -14 -5 -21.5t-13.5 -11t-19 -3.5t-21.5 2t-25.5 10.5t-14.5 21.5zM163 77q12 -18 12 -35q0 -25 -20.5 -39t-45.5 -6q-16 5 -25 21.5t-9 34.5q0 26 19 38q16 11 37 5.5t32 -19.5zM333 90
q13 -11 15 -28t0 -24q-2 -5 -7 -10.5t-12 -10t-14 -7.5t-13 -3q-26 0 -41 14.5t-15 36.5q0 14 8 32q4 9 12.5 12.5t19.5 3.5q14 0 27 -4.5t20 -11.5z" />
    <glyph glyph-name="exclam" unicode="!" horiz-adv-x="202" 
d="M35 30q0 35 10 52.5t27 17.5q24 0 51 -31q6 -7 8.5 -17.5t2.5 -19.5q0 -14 -5 -21.5t-13.5 -11t-19 -3.5t-21.5 2t-25.5 10.5t-14.5 21.5zM137 289q-2 -11 2.5 -36.5t4.5 -49.5q0 -20 -6 -34t-25 -15q-34 -2 -49.5 15t-15.5 46q0 22 7 44q4 14 4.5 40.5t1 59l1 66t4 61.5
t12 45.5t23.5 17.5q9 0 21 -7t27 -24q6 -6 6 -19t-2 -27t-5 -26.5t-4 -19.5q-4 -30 -6.5 -67.5t-0.5 -69.5z" />
    <glyph glyph-name="quotedbl" unicode="&#x22;" horiz-adv-x="343" 
d="M137 415q0 -3 1 -11t1.5 -18l1 -20t-0.5 -17q1 -27 -7 -43t-26 -16q-13 0 -28 8q-14 6 -18 17t-4 24t2 26.5t4 25.5q2 34 -4 65.5t-12 55.5q-5 23 8 38.5t33 15.5q16 0 29 -8q16 -10 21.5 -25t5.5 -34t-3 -40.5t-4 -43.5zM294 405q0 -12 1 -26.5l2 -28t1 -25.5t-1 -19
q-2 -9 -10.5 -13t-19.5 -4q-17 0 -33 9t-18 26q-4 33 0.5 68.5t2.5 70.5q0 7 -4 20t-7.5 26.5t-5.5 25t1 17.5q11 22 30 22q11 0 23.5 -5.5l23.5 -10.5t14.5 -17.5t3.5 -29.5q0 -25 -4 -54.5t0 -51.5z" />
    <glyph glyph-name="asciicircum" unicode="^" horiz-adv-x="438" 
d="M279 548q13 -8 23.5 -23.5t20 -33.5t20 -35.5t24.5 -29.5q15 -14 21 -20.5t9 -10.5t5 -7t9 -9q7 -8 6 -16.5t-8.5 -15.5t-19 -12t-24.5 -5q-18 0 -32 11q-16 13 -26.5 32t-22 37t-25.5 30.5t-37 12.5q-23 -6 -40 -25.5t-31.5 -41t-29 -38t-33.5 -16.5q-18 0 -43 22
q-15 15 -15 24t10.5 14.5t21.5 14.5q13 10 26.5 23l26.5 25.5l24.5 24l20.5 20.5q12 12 21 24t17 21t16.5 14.5t19.5 5.5q18 0 45 -17z" />
    <glyph glyph-name="hyphen" unicode="-" horiz-adv-x="388" 
d="M74 276q45 -6 86 -6q32 0 61.5 2.5t58.5 6.5q16 2 28 -2t20 -11.5t12.5 -17.5t4.5 -20q0 -17 -13 -28.5t-42 -4.5q-22 5 -46.5 10t-53.5 0q-19 -4 -37.5 -7.5t-37.5 -3.5q-17 0 -34.5 5t-33.5 19q-14 13 -14 26q0 14 12 23t29 9z" />
    <glyph glyph-name="equal" unicode="=" horiz-adv-x="427" 
d="M93 344q21 -3 41.5 -4t40.5 -1q32 0 63 2.5t60 5.5q16 2 28 -2t20.5 -11.5t13 -17.5t4.5 -20q0 -17 -13 -28.5t-42 -4.5q-22 5 -46.5 10t-53.5 0q-19 -4 -38 -7.5t-38 -3.5q-17 0 -34 5t-33 19q-14 13 -14 26q0 14 12 23t29 9zM168 147q21 7 49 7t57.5 -4t59.5 -4
q14 0 27 1t27 5q9 2 8.5 12.5t-7 22.5t-17.5 22.5t-22 13.5q-5 1 -15 0t-24 -3.5t-31 -5t-36 -3.5q-39 -2 -75.5 1.5t-63.5 3.5q-28 0 -41 -7q-12 -7 -13 -20t5.5 -25.5t20 -22t30.5 -10.5q9 0 18.5 2t18 5l15 5.5t9.5 3.5z" />
    <glyph glyph-name="plus" unicode="+" horiz-adv-x="416" 
d="M98 276q10 -2 19.5 -3t19.5 -1q22 -1 31.5 1t9.5 15q0 5 -2 13.5t-5 19.5q-2 5 -2.5 10t-1.5 10q-1 14 8 25.5t21 17.5t24 5t18 -12q4 -7 4.5 -18.5t0.5 -25.5q0 -10 -0.5 -17.5t-0.5 -13.5q0 -15 4 -20.5t19 -5.5q12 0 38 3q16 2 28 -2.5t20 -12t12.5 -17.5t4.5 -20
q0 -17 -13 -28t-41 -4q-42 11 -55 9t-13 -13q0 -10 5 -26t0 -33q-2 -10 -11.5 -19t-21 -15t-21 -6.5t-11.5 7.5q-8 26 -8 44v30q0 14 -6.5 19.5t-33.5 2.5q-34 -4 -67 23q-15 12 -15 25q0 14 12.5 23.5t29.5 9.5z" />
    <glyph glyph-name="quoteright" unicode="&#x2019;" horiz-adv-x="226" 
d="M141 415q-1 -3 -2.5 -11l-3.5 -18t-4.5 -20t-5.5 -17q-7 -27 -19.5 -43t-30.5 -16q-13 0 -25 8q-12 6 -13 17t3 24q3 13 9.5 26.5t11.5 25.5q12 34 15 65.5t4 55.5q2 23 19 38.5t37 15.5q15 0 26 -8q14 -10 14.5 -25t-4.5 -34t-14.5 -40.5t-16.5 -43.5z" />
    <glyph glyph-name="grave" unicode="`" horiz-adv-x="321" 
d="M130 518q-16 17 -37.5 35t-28.5 30q-5 9 1 19t17 17.5t24.5 9.5t22.5 -6q23 -20 43 -46.5t45 -48.5q5 -4 15.5 -10l21.5 -12.5t20 -13t11 -12.5q4 -14 1 -22.5t-10.5 -14.5t-18 -9.5l-19.5 -6.5q-13 -4 -26 6t-26.5 25.5l-27.5 32.5t-28 27z" />
    <glyph glyph-name="asciitilde" unicode="~" horiz-adv-x="512" 
d="M45 234q0 21 7 44t20.5 42t32 30.5t42.5 10.5q41 -2 77 -26.5t54 -60.5q9 -18 24.5 -29t32.5 -11q13 0 24.5 8t18.5 26q4 10 3.5 21t0.5 20.5t5.5 18t17.5 14.5q14 6 24.5 1t17 -17t10 -29t3.5 -35q0 -23 -5 -43t-14 -29q-19 -19 -51.5 -30.5t-64.5 -11.5q-34 0 -57 13
q-9 5 -22 25t-28.5 41.5t-32 39t-30.5 17.5q-17 0 -27 -28q-3 -9 -3.5 -20l-1 -21.5t-4 -19.5t-12.5 -13q-8 -3 -18 -0.5t-19 10t-16 18.5t-9 24z" />
    <glyph glyph-name="asterisk" unicode="*" horiz-adv-x="506" 
d="M356 259q-22 17 -33.5 28.5t-16.5 11.5q-4 0 -2.5 -10.5t6.5 -35.5q3 -14 3 -27q-1 -19 -11 -34t-22.5 -22.5t-25.5 -6.5t-19 15q-4 9 -4.5 23.5t-0.5 34.5q1 17 1.5 28.5t0.5 18.5q0 13 -6.5 7t-27.5 -29q-8 -10 -20 -18q-18 -12 -39 -12q-12 0 -22.5 4t-17.5 10.5
t-8.5 15t3.5 18.5q5 8 16 17.5t27 20.5q24 16 36 22.5t12 11.5t-12 10.5t-36 19.5q-20 11 -36.5 26t-28.5 36q-13 23 -4.5 33.5t26.5 10.5q20 0 40 -11l19 -13t19 -12l32.5 -22.5t17.5 -8.5t5 11t-4 39q-3 24 -2 32q3 13 13.5 25t22.5 19.5t22.5 8t13.5 -9.5q6 -30 6 -59
q0 -17 -1 -28t-1 -17q0 -11 7 -4.5l32 29.5q5 5 8.5 7t6.5 4q12 4 28 2.5t29 -7t19.5 -13.5t-0.5 -16q-11 -12 -23.5 -22.5t-25.5 -19.5l-34.5 -22t-11.5 -12t12.5 -10t39.5 -17q31 -14 45 -33.5t14 -36.5q0 -14 -8.5 -24t-24.5 -10q-11 0 -24.5 5t-29.5 18z" />
    <glyph glyph-name="dollar" unicode="$" 
d="M333 513q-12 -11 -22 -15.5t-21 -4.5q-17 0 -33.5 6t-36.5 6q-13 0 -28 -4.5t-33 -16.5q-15 -11 -15 -24q0 -17 18 -39.5t45 -48.5l57.5 -55t56 -59t40.5 -60.5t11 -59.5q-5 -32 -29.5 -53.5t-59.5 -33.5q-14 -5 -22 -7.5l-12.5 -4t-5.5 -4t-1 -7.5t0.5 -13.5t-1.5 -22.5
q-2 -21 -8 -30t-14 -9t-17 9t-17 23q-9 17 -11.5 26.5t-6 14.5t-11.5 7.5t-28 5.5q-29 5 -52.5 14.5t-34.5 23.5q-11 16 -11 27q0 14 12 22.5t26 8.5q17 0 29 -13q7 -5 31 -9.5t53 -4.5q18 0 35 2.5t31 9t22.5 17t9.5 27.5q0 11 -12 29t-31 39t-42.5 43.5l-45.5 43l-39.5 37
t-25.5 25.5q-20 23 -28 43.5t-8 38.5q0 29 19 51t50 37q18 9 25.5 12t9.5 7t2 12t3 26q4 23 14 36t22 13q9 0 18 -7.5t16 -23.5q7 -17 8 -25.5t4 -12.5t10 -5.5t26 -3.5q37 -5 55 -21t4 -45z" />
    <glyph glyph-name="slash" unicode="/" horiz-adv-x="343" 
d="M216 261q-23 -54 -41.5 -87.5t-23.5 -44.5q-9 -23 -19 -42t-18 -39q-12 -29 -23 -41t-20 -12q-12 0 -19.5 16t-7.5 38q0 25 11 49q25 52 52 101.5t50 106.5q7 18 18 40.5t21.5 46.5t19 46.5t11.5 39.5q5 32 21 48.5t32 16.5q13 0 23 -11t10 -33q0 -17 -7 -37
q-2 -8 -5.5 -17.5t-9.5 -21.5q-8 -15 -17.5 -36l-19.5 -43.5l-19.5 -44.5t-18.5 -39z" />
    <glyph glyph-name="at" unicode="@" horiz-adv-x="781" 
d="M543 253q-4 -15 -4 -32q0 -25 10.5 -41.5t31.5 -16.5q22 0 51 20q22 15 31.5 39t9.5 52q0 27 -7.5 55t-20 53.5t-29 45.5t-33.5 31q-43 26 -86 38t-85 12q-57 0 -108.5 -20t-90.5 -54.5t-62 -81t-23 -99.5q0 -35 11 -72.5t37 -75.5q28 -42 64 -57t76.5 -19.5t82.5 -5
t81 -13.5q4 -17 -6.5 -27t-29 -15.5t-41 -7t-41.5 -1.5q-13 0 -23 0.5t-16 0.5q-69 4 -127 34t-93 85q-56 89 -56 179q0 75 39 143t116 120q45 31 92 44.5t95 13.5q75 0 144 -29t120 -75q47 -42 70 -93.5t23 -102.5q0 -61 -35.5 -109.5t-109.5 -64.5q-22 -5 -40.5 2.5
t-36 16.5t-34.5 14.5t-36 -3.5q-29 -14 -55 -20t-49 -6q-33 0 -59 11t-43.5 29.5t-27 42.5t-9.5 50q0 24 8.5 48t26.5 45.5t45 38.5t64 26q11 3 22 4t22 1q30 0 58.5 -9t49.5 -27t31 -43.5t3 -58.5zM444 314q-8 8 -18.5 11.5t-21.5 3.5q-20 0 -41 -10.5t-38 -27t-28 -36
t-11 -36.5q0 -13 6.5 -23.5t22.5 -16.5q13 -6 30 -6q26 0 51 11.5t42 28.5q5 5 16 19.5t11 35.5q0 11 -5 22.5t-16 23.5z" />
    <glyph glyph-name="numbersign" unicode="#" horiz-adv-x="607" 
d="M254 268q1 -23 1 -35.5t4 -18t15 -6t35 0.5h13.5t13.5 1q13 1 19 2.5t7.5 5.5t0.5 12t-1 21q-1 16 -1 25.5t-1.5 15t-6 7t-13.5 1.5q-5 0 -12.5 -0.5t-18.5 -0.5t-19 1t-14 1q-11 0 -16 -6t-6 -27zM365 94q1 18 0.5 27t-4.5 12.5t-13 3.5h-25q-23 -1 -37 -1t-21.5 -2.5
t-10.5 -9t-3 -19.5q0 -8 0.5 -19t1.5 -25q2 -33 -5 -46.5t-18 -13.5q-8 0 -17.5 7t-17 18t-12.5 24.5t-5 27.5q0 10 0.5 18t0.5 14q0 18 -5 24t-22 6q-7 0 -16 -0.5t-20 -1.5q-33 -2 -46.5 5t-13.5 18q0 9 7 18t18 17t24.5 12.5t27.5 4.5q21 0 31.5 0.5t15 5t4.5 14t-1 26.5
q-1 20 -4.5 26.5t-18.5 6.5q-7 0 -17.5 -1t-24.5 -3q-35 -4 -55 8.5t-20 29.5q0 13 14 24.5t44 16.5l16.5 2t20.5 0q23 -1 30.5 6t7.5 23q0 9 -1.5 20.5t-3.5 25.5q-5 35 7.5 54.5t29.5 19.5q13 0 24.5 -13.5t16.5 -43.5l2 -16.5t1 -20.5q-1 -11 -1.5 -18.5t-0.5 -12.5
q0 -16 8 -18t36 -3q18 1 30.5 0.5t20.5 -0.5q13 0 16.5 3.5t3.5 17.5q0 7 -0.5 17t-0.5 24v23q-2 33 5 46.5t18 13.5q8 0 17.5 -7t17 -18t12.5 -24.5t5 -27.5t-0.5 -25t-0.5 -19q0 -16 5.5 -21t25.5 -5h14t18 1q33 2 46.5 -5t13.5 -18q0 -8 -7 -17.5t-18 -17t-25 -12.5
t-28 -5q-11 0 -19 0.5t-13 0.5q-13 0 -15.5 -7t-1.5 -34q0 -5 0.5 -9.5t0.5 -9.5q1 -15 6.5 -21t14.5 -6q8 0 19 3.5l24 7.5q34 10 53.5 -2t19.5 -31q0 -14 -13 -27.5t-43 -18.5q-8 -1 -17 -2t-20 0q-25 1 -34.5 -4t-9.5 -17q0 -8 3 -19t8 -25q10 -34 -2 -54t-31 -20
q-14 0 -27 13.5t-18 42.5q-2 8 -3 17t0 20z" />
    <glyph glyph-name="backslash" unicode="\" horiz-adv-x="331" 
d="M136 261q-9 17 -19 39l-19.5 44.5l-19 43.5t-17.5 36q-6 12 -9.5 21.5t-5.5 17.5q-7 20 -7 37q0 22 10 33t23 11q16 0 32 -16.5t21 -48.5q3 -17 11.5 -40t19 -46.5l21.5 -46.5t18 -40q23 -57 50 -106.5t52 -101.5q11 -24 11 -49q0 -22 -7.5 -38t-19.5 -16q-9 0 -20 12
t-23 41q-8 20 -18 39t-19 42q-5 11 -23.5 44.5t-41.5 87.5z" />
    <glyph glyph-name="quotesingle" unicode="'" horiz-adv-x="191" 
d="M137 415q0 -3 1 -11t1.5 -18l1 -20t-0.5 -17q1 -27 -7 -43t-26 -16q-13 0 -28 8q-14 6 -18 17t-4 24t2 26.5t4 25.5q2 34 -4 65.5t-12 55.5q-5 23 8 38.5t33 15.5q16 0 29 -8q16 -10 21.5 -25t5.5 -34t-3 -40.5t-4 -43.5z" />
    <glyph glyph-name="period" unicode="." horiz-adv-x="241" 
d="M163 77q12 -18 12 -35q0 -25 -20.5 -39t-45.5 -6q-16 5 -25 21.5t-9 34.5q0 26 19 38q16 11 37 5.5t32 -19.5z" />
    <glyph glyph-name="colon" unicode=":" horiz-adv-x="242" 
d="M163 349q12 -18 12 -35q0 -25 -20.5 -39t-45.5 -6q-16 5 -25 21.5t-9 34.5q0 26 19 38q16 11 37 5.5t32 -19.5zM157 154q13 -11 15 -28t0 -24q-2 -5 -7 -10.5t-12 -10t-14 -7.5t-13 -3q-26 0 -41 14.5t-15 36.5q0 14 8 32q4 9 12.5 12.5t19.5 3.5q14 0 27 -4.5t20 -11.5z
" />
    <glyph glyph-name="semicolon" unicode=";" horiz-adv-x="224" 
d="M163 349q12 -18 12 -35q0 -25 -20.5 -39t-45.5 -6q-16 5 -25 21.5t-9 34.5q0 26 19 38q16 11 37 5.5t32 -19.5zM144 34q-2 -9 -5.5 -21.5t-9 -24.5t-14 -21t-20.5 -10q-32 -3 -38.5 9.5t4.5 38.5q9 20 17 42.5t8 45.5q0 7 -0.5 16t-0.5 19q0 21 6 38.5t28 17.5
q24 0 33 -14.5t9 -37.5t-6 -50z" />
    <glyph glyph-name="underscore" unicode="_" horiz-adv-x="556" 
d="M290 3q-11 -1 -20.5 -1h-18.5q-35 0 -58.5 2t-31.5 1t-15 -1h-15q-13 0 -24.5 0.5t-23.5 -0.5q-33 -2 -46.5 5t-13.5 18q0 8 7 17.5t18 17t25 12.5t28 5q39 -1 78 -3t79 -2h22.5t22.5 1q16 1 38 1t45 1t44 2.5t36 6.5q34 11 53.5 -1.5t19.5 -31.5q0 -14 -13 -27t-43 -18
q-8 -1 -16.5 -2.5t-20.5 -0.5q-15 1 -35 0.5t-41 -1.5t-42 -1.5t-38 0.5z" />
    <glyph glyph-name="trademark" unicode="&#x2122;" horiz-adv-x="715" 
d="M150 421v20t-2 21t-4 17.5t-6.5 10.5t-12.5 5.5t-22 2.5q-17 2 -29 6t-10 12q0 15 10 19.5t24 4.5q11 0 23.5 -1.5t21.5 -0.5q17 1 41 3t45 2q17 0 29 -2t16 -8q1 -2 6 -8.5t1 -8.5q0 -8 -10 -10t-23.5 -2.5t-26.5 -1.5t-19 -8q-5 -5 -6.5 -24t-1.5 -43q0 -28 1 -54.5
t1 -35.5q-1 -14 1 -32t2 -35q0 -11 -1.5 -21t-6.5 -17q-8 -11 -18 -11q-12 0 -19.5 13t-7.5 24q0 24 3.5 50t3.5 51q0 17 -3 32v30zM424 397l5 -21.5t7 -23.5t8.5 -18.5t9.5 -7.5q4 0 7.5 7t6.5 25q3 17 8.5 41l11 46.5l10 41t6.5 24.5q5 15 13 21.5t18 6.5q21 0 34 -19
q7 -10 9 -30q1 -19 4.5 -35t8 -31l9.5 -30.5t10 -33.5q3 -11 7 -35.5t13 -47.5q5 -15 10 -28.5t5 -23.5q0 -8 -5.5 -12.5t-20.5 -2.5q-9 1 -15.5 12t-12 27.5t-10 37t-10.5 41.5q-7 26 -11 49.5t-7 37.5q-6 22 -11 22t-9.5 -12t-9 -27.5t-8 -30.5t-5.5 -22q-4 -13 -7 -29
t-6.5 -31.5t-7.5 -30t-9 -24.5q-2 -6 -10 -8.5t-16 -3.5t-15.5 -1t-12.5 9q-8 13 -14 35t-11 45.5l-9.5 45t-8.5 33.5l-13 35t-10 14q-4 0 -9 -11t-12 -37q-7 -23 -12 -50l-10 -51.5t-11 -42.5t-15 -21q-15 -6 -24 -6q-15 0 -15 23q1 16 6 37t11.5 42t13 38.5t9.5 26.5
q13 33 20.5 69t20.5 70q3 8 10.5 11.5t17.5 3.5q11 0 21 -4t14 -12q7 -13 11.5 -31.5t7 -36.5l4.5 -33t5 -22z" />
    <glyph glyph-name="copyright" unicode="&#xa9;" horiz-adv-x="686" 
d="M588 481q31 -40 45 -82.5t16 -78.5q2 -72 -19 -132.5t-59.5 -104.5t-92.5 -68.5t-118 -24.5q-61 0 -125 24q-96 36 -142.5 101.5t-46.5 142.5q0 71 38 143.5t112 132.5q20 16 53.5 23.5t73.5 7.5q38 0 78 -6t76.5 -17t65.5 -26.5t45 -34.5zM360 72q69 11 118.5 49.5
t74.5 92.5q10 21 15 42.5t5 47.5q0 14 -1 28.5t-4 31.5q-3 18 -12.5 35t-23 31.5t-29.5 26.5t-32 21q-23 8 -45 11t-44 3q-55 0 -101.5 -20t-81 -53t-54 -75t-19.5 -86q0 -50 28 -97t92 -80q25 -13 64 -13q12 0 24.5 1t25.5 3zM423 376q1 -1 -1.5 -4.5t-9.5 -3.5
q-6 0 -16 4.5t-25 16.5q-24 0 -43 -10.5t-32 -27t-20 -36.5t-7 -39q0 -30 17 -52.5t54 -22.5q8 0 26 1.5t30 10.5l8 4q1 2 9 4.5t9 0.5q9 0 9 -11q0 -8 -3.5 -16t-5.5 -11q-14 -14 -35 -17.5t-40 -4.5q-43 -1 -73.5 24.5t-41.5 70.5q-3 12 -3 26q0 25 10.5 50t27.5 45t40 32
t48 12q14 0 28 -4t28 -13q2 -1 4 -4l4 -6q3 -4 5 -9v-6q-1 0 -1 -4z" />
    <glyph glyph-name="registered" unicode="&#xae;" horiz-adv-x="687" 
d="M588 481q31 -40 45 -82.5t16 -78.5q2 -72 -19 -132.5t-59.5 -104.5t-92.5 -68.5t-118 -24.5q-61 0 -125 24q-96 36 -142.5 101.5t-46.5 142.5q0 71 38 143.5t112 132.5q20 16 53.5 23.5t73.5 7.5q38 0 78 -6t76.5 -17t65.5 -26.5t45 -34.5zM360 72q69 11 118.5 49.5
t74.5 92.5q10 21 15 42.5t5 47.5q0 14 -1 28.5t-4 31.5q-3 18 -12.5 35t-23 31.5t-29.5 26.5t-32 21q-23 8 -45 11t-44 3q-55 0 -101.5 -20t-81 -53t-54 -75t-19.5 -86q0 -50 28 -97t92 -80q25 -13 64 -13q12 0 24.5 1t25.5 3zM259 248v36q0 17 -0.5 32.5t-2.5 24.5
q-3 19 -6.5 36.5t-3.5 31.5q0 11 4 18.5t15 10.5q14 3 30.5 4.5t33.5 1.5q8 0 14.5 -0.5t13.5 -1.5q46 -5 70 -34t24 -66q0 -22 -9 -44t-29 -39q-11 -9 -19.5 -13t-8.5 -11t22 -29q8 -8 13.5 -11t14.5 -10q12 -9 23 -15t11 -14q0 -5 -5.5 -11.5t-19.5 -11.5q-6 -2 -14.5 3
t-17.5 12.5l-18 15.5l-15 13q-5 3 -13 9t-18 12q-25 14 -34 14q-12 0 -12 -17q0 -9 3 -21q1 -7 2 -13t1 -12q0 -13 -7 -20t-25 -2q-10 2 -12.5 20.5t-2.5 41.5v20v21t-2 18zM297 312q3 -27 13.5 -33.5t25.5 -4.5q14 1 22.5 3t14.5 5.5t10.5 8t10.5 11.5q17 20 17 41
q0 25 -21 41t-45 16q-23 0 -37 -13q-12 -12 -12 -46q0 -7 0.5 -14t0.5 -15z" />
    <glyph glyph-name="quotedblleft" unicode="&#x201c;" horiz-adv-x="391" 
d="M153 415q0 -3 2.5 -11l5.5 -18l6 -20t3 -17q6 -27 1.5 -43t-22.5 -16q-13 0 -29 8q-15 6 -22 17t-9 24q-3 13 -3.5 26.5t-1.5 25.5q-5 34 -18 65.5t-24 55.5q-11 23 -1 38.5t30 15.5q16 0 31 -8q18 -10 26.5 -25t13.5 -34q4 -19 5 -40.5t6 -43.5zM312 405q2 -12 6 -26.5
l8 -28t7 -25.5t3 -19q-1 -9 -8.5 -13t-18.5 -4q-17 0 -35 9t-23 26q-11 33 -14 68.5t-13 70.5q-2 7 -8 20l-12.5 26.5t-11.5 25t-3 17.5q7 22 26 22q11 0 24.5 -5.5l25.5 -10.5t18 -17.5t10 -29.5q5 -25 8 -54.5t11 -51.5z" />
    <glyph glyph-name="quotedblright" unicode="&#x201d;" horiz-adv-x="383" 
d="M143 415q-1 -3 -2 -11t-3 -18l-4 -20t-4 -17q-6 -27 -17.5 -43t-28.5 -16q-13 0 -26 8q-12 6 -14 17t2 24q3 13 8.5 26.5l10.5 25.5q11 34 12.5 65.5t0.5 55.5q1 23 17 38.5t36 15.5q15 0 27 -8q14 -10 16 -25t-3 -34t-13.5 -40.5t-14.5 -43.5zM297 405
q-3 -12 -5.5 -26.5l-5 -28t-5 -25.5t-5.5 -19q-5 -9 -14 -13t-20 -4q-17 0 -31 9t-12 26q5 33 18 68.5t19 70.5q1 7 1 20t-0.5 26.5t0.5 25t5 17.5q9 12 17.5 17t17.5 5q11 0 22.5 -5.5l21.5 -10.5q9 -5 9.5 -17.5t-3.5 -29.5q-6 -25 -17 -54.5t-13 -51.5z" />
    <glyph glyph-name="quoteleft" unicode="&#x2018;" horiz-adv-x="226" 
d="M156 415q0 -3 3 -11t6 -18l6 -20t3 -17q7 -27 3 -43t-22 -16q-14 0 -31 8q-14 6 -21 17t-10 24q-2 13 -3 26.5t-3 25.5q-5 34 -18.5 65.5l-24.5 55.5q-11 23 -1 38.5t30 15.5q15 0 30 -8q19 -10 27.5 -25t13.5 -34q4 -19 5.5 -40.5t6.5 -43.5z" />
    <glyph glyph-name="space" unicode=" " horiz-adv-x="284" 
 />
    <glyph glyph-name="a" unicode="a" horiz-adv-x="489" 
d="M294 525q11 -3 21.5 -20.5t20.5 -43t19.5 -55t17 -58t13 -51.5t8.5 -34q13 -49 29 -92l27.5 -76.5t15 -55.5t-8.5 -29q-20 -12 -34 -12q-24 0 -35 22q-6 13 -10.5 29t-8 31t-7 27.5t-7.5 18.5q-6 8 -20 10.5t-33 2.5q-17 0 -35 -1.5t-35.5 -3.5t-33 -3.5t-25.5 -1.5
q-21 0 -32.5 -11t-18 -26t-12 -32t-14.5 -29q-11 -14 -25 -21t-27 -7q-16 0 -24.5 12.5t2.5 40.5l32.5 81l32.5 82q17 45 36.5 87l38.5 87q8 18 15 42.5t17 46.5t24.5 37.5t37.5 15.5q18 0 38 -10zM312 312q-5 18 -15 46t-15 47q-3 12 -8.5 15.5t-11 2t-10.5 -6.5t-9 -11
q-3 -4 -7 -12.5l-8.5 -18t-9.5 -19l-8 -15.5q-11 -20 -18.5 -37t-12.5 -37q-5 -16 -4 -25t4.5 -13t9 -4.5t10.5 -0.5q14 1 36 1t39 2q6 1 16 1.5t18.5 3.5t13.5 8.5t3 15.5q-1 3 -3 12.5t-4.5 19.5t-4 17.5z" />
    <glyph glyph-name="b" unicode="b" horiz-adv-x="438" 
d="M271 532q22 -6 42 -20.5t35.5 -34t25 -41t12.5 -41.5q4 -30 0.5 -47t-12 -28t-21 -20.5t-24.5 -23.5q17 -7 30.5 -22t23 -34.5t14.5 -40.5t5 -40q0 -17 -5 -32q-8 -23 -28 -42t-45.5 -33.5t-53.5 -23.5t-51 -11q-12 -2 -23 -2h-22q-26 0 -49 4.5t-45 15.5q-18 9 -24 24
t-6 35t3 42t3 45q0 68 -1 141t-1 144q0 28 5 46t16 28.5t28.5 14t42.5 3.5q24 0 55 -2t70 -4zM141 438q-11 -15 -11 -43q0 -17 2.5 -34t3.5 -31q1 -15 13 -20.5t29 -5.5q23 0 49 7t39 14q27 14 38.5 27.5t11.5 27.5q0 15 -12.5 29t-31 24.5t-41 16.5t-42.5 6q-16 0 -28.5 -4
t-19.5 -14zM132 172q0 -21 -1.5 -32.5t-1.5 -21.5q0 -12 7 -34l14 -8q9 -6 26.5 -5.5t36 4t35 8t22.5 7.5q23 11 39.5 24.5t16.5 33.5q0 16 -13 36q-6 9 -18.5 16t-28.5 12t-34.5 7.5t-35.5 2.5q-26 0 -45 -6.5t-19 -20.5q1 0 0.5 -10.5t-0.5 -12.5z" />
    <glyph glyph-name="c" unicode="c" horiz-adv-x="483" 
d="M434 449q2 -2 -3 -10.5t-21 -8.5q-13 0 -34.5 10t-53.5 36q-53 -1 -94 -23.5t-70 -58t-44 -79t-15 -85.5q0 -32 9 -61.5t28 -52t48.5 -36t69.5 -13.5q9 0 24 0.5t32.5 3t35 8t31.5 15.5l16 9q1 2 7 4.5l12.5 5t12.5 3t7 -1.5q11 0 16 -7t5 -18q0 -16 -7.5 -33.5
t-13.5 -23.5q-15 -15 -34.5 -24.5t-41 -14.5t-44 -7t-43.5 -2q-46 -1 -86.5 13t-73 41t-55.5 65.5t-34 86.5q-6 27 -6 56q0 55 22 109.5t59.5 97t87 69t104.5 26.5q30 0 61 -8.5t61 -28.5q3 -2 7.5 -8.5l9 -13.5l8 -12.5l3.5 -5.5v-13q-2 -1 -3 -9z" />
    <glyph glyph-name="d" unicode="d" horiz-adv-x="511" 
d="M87 524q54 12 107 12q72 0 134.5 -23.5t104.5 -74.5q17 -20 26 -41t14.5 -42.5t8 -45t5.5 -47.5q0 -72 -26.5 -122t-72 -82t-106 -46.5t-127.5 -14.5q-37 0 -61 13.5t-19 34.5q0 16 -1.5 48.5t-4 73t-6 84t-7 79.5t-6.5 60.5t-6 28.5q-10 21 -10 41q0 28 17 43.5t36 20.5
zM137 244l6.5 -83.5t7.5 -48t15 -21.5t28 -4q40 2 71.5 10.5t55.5 25t42.5 41t32.5 59.5t14 69q0 39 -18.5 69t-47 50t-63 30t-65.5 10q-37 0 -63 -14.5t-26 -43.5q0 -6 1.5 -23.5l3.5 -39.5t3.5 -45.5t1.5 -40.5z" />
    <glyph glyph-name="e" unicode="e" horiz-adv-x="472" 
d="M342 524q10 1 17.5 1.5t14 -1.5t12.5 -6.5t14 -14.5q9 -11 10 -21.5t-5.5 -18t-22.5 -10.5t-42 2q-11 2 -32.5 3.5t-45.5 1.5q-23 0 -46 -1.5t-42 -6t-31.5 -12t-13.5 -19.5q-3 -26 -3 -43q0 -23 12 -32.5t51 -9.5q19 0 51.5 2t66.5 2q36 0 67 -4.5t42 -18.5
q13 -16 13 -26q0 -17 -31 -21t-75 -4q-32 0 -65 -0.5t-61 -5t-46.5 -15.5t-20.5 -32q-1 -12 -2 -26t-1 -28q0 -17 2.5 -33t9 -27.5t18 -16.5t29.5 0q34 9 73.5 12.5t79.5 3.5h30q29 -1 48 -14t19 -27q0 -10 -12.5 -17.5t-42.5 -7.5q-44 0 -92 -4.5t-90 -12.5
q-26 -5 -52.5 -15t-47.5 -10q-19 0 -32 13t-16 51q-1 13 -1.5 25t-0.5 25q0 47 3.5 95t3.5 96q0 21 -1 41.5t-4 40.5q-2 8 -5 21.5t-6 29.5t-5 32t-2 30q0 22 7 32q8 12 26 16.5t42 4.5q27 0 59 -4l64 -8q31 -4 59.5 -6.5t51.5 -0.5z" />
    <glyph glyph-name="f" unicode="f" 
d="M285 520q14 0 26 1t23 1q16 0 29 -5t22 -22q6 -10 6.5 -17t-11.5 -15t-27.5 -9.5t-32.5 -1.5h-22.5t-21.5 -1q-36 -3 -63 -3t-44 -4.5t-25.5 -16t-8.5 -36.5q0 -22 6 -56q3 -17 26 -23.5t51 -6.5q20 0 38 2.5t29 4.5q12 3 24.5 1t23 -7.5t17 -14.5t6.5 -21q0 -14 -11 -29
q-5 -6 -15.5 -8.5t-24.5 -2.5q-23 0 -51 3t-54 3q-28 0 -48.5 -7t-24.5 -29q-2 -11 -0.5 -25t3.5 -30.5t4.5 -33.5t2.5 -34q0 -11 -1 -20.5t-4 -19.5q-5 -14 -13 -20t-19 -6t-21.5 5t-18 13.5t-11.5 18.5t-1 21q8 27 10.5 64t2.5 76q0 38 -1.5 73.5t-2.5 62.5
q-2 35 -11.5 69.5t-4.5 66.5q4 25 34 32t69 7q27 0 54.5 -1.5t50.5 -1.5q22 0 36 3z" />
    <glyph glyph-name="g" unicode="g" horiz-adv-x="557" 
d="M456 483q-1 -23 -6 -31.5t-13 -8.5t-17 4t-17 7q-21 7 -37.5 8t-17.5 1q-47 0 -81.5 -6.5t-61.5 -25t-49 -53t-43 -90.5q-8 -24 -8 -47q0 -32 12 -64.5t33.5 -59t50 -43t61.5 -16.5q20 0 44.5 5t48.5 14.5t44 23.5t30 33q7 10 7 27l1 37q0 13 -15.5 17.5t-39.5 4.5
q-31 0 -67 -4t-62 -4q-27 0 -30 8q-6 19 6.5 32t35.5 22t53.5 14t60.5 7.5t56.5 3t42.5 0.5t26.5 -10t17.5 -26.5t10 -37t3 -40.5q0 -23 -3.5 -43.5t-9.5 -31.5q-16 -29 -41.5 -51.5t-56.5 -37.5t-66.5 -23t-71.5 -8q-56 0 -108 19t-87 59q-36 39 -52.5 84.5t-16.5 92.5
q0 56 22 109.5t60.5 95.5t91.5 67.5t115 25.5q20 0 45.5 -3t47.5 -10t37 -18.5t15 -28.5z" />
    <glyph glyph-name="h" unicode="h" horiz-adv-x="488" 
d="M119 117v-14.5t1 -21.5t1.5 -20t2.5 -9q5 -26 -7 -40t-27 -14q-8 0 -16.5 4.5t-13.5 14.5q-5 9 -3.5 24.5t1.5 31.5q0 29 -2 59t-3 59q0 21 0.5 44.5t0.5 46.5q0 34 -2.5 66t-10.5 61q-1 4 -4 19.5t-5.5 33t-3 31.5t3.5 16q0 11 10 15t22.5 1t24.5 -12t15 -23
q4 -18 6.5 -39t4 -42t2 -39.5t0.5 -31.5q0 -14 9 -17.5t23 -5.5q8 -2 16 -2h16q24 0 52 2.5t59 2.5q17 1 33 4t30 11q8 4 11 16.5t3 28.5q0 23 -3.5 48.5t-4.5 39.5q-2 32 3 47.5t22 19.5q10 3 20 1t17.5 -8.5t11.5 -18t1 -27.5q-1 -42 1 -81l4 -80q1 -26 0.5 -55.5
t-0.5 -59.5q0 -27 1 -53t5 -47q2 -14 3.5 -25.5t1.5 -22.5q0 -26 -6 -41.5t-14 -16.5q-34 0 -43.5 9.5t-13.5 20.5q1 19 5 53t4 69q0 20 -2.5 37.5t-8.5 31.5q-7 15 -20 18t-31 1q-27 -2 -66.5 -1.5t-75.5 -2.5q-22 -2 -35 -5t-19 -9t-7 -16.5t0 -28.5v-58v0z" />
    <glyph glyph-name="j" unicode="j" horiz-adv-x="415" 
d="M377 418q1 -17 1.5 -32.5t0.5 -32.5q0 -63 -5 -124t-12 -117l-2 -5t-4 -12t-4 -13t-3 -8q-12 -25 -26.5 -39t-31.5 -21.5t-39 -9.5t-49 -2q-20 0 -48.5 7l-48.5 12q-20 6 -34 18.5t-23.5 29t-14 35.5t-4.5 38v33q0 16 1.5 29.5t6.5 24.5t15 18.5t27 12.5q31 8 28 -40
q0 -13 -5 -28t-5 -29q0 -43 23 -61.5t72 -18.5l7 0.5t16 1l17.5 1t10.5 1.5q20 9 32.5 27t20 42.5t10 54.5t2.5 62q0 47 -3 94t-4 85q0 9 -4 22t-6 25t-0.5 21t11.5 10q24 0 39 -10t22.5 -26t10 -36t2.5 -40z" />
    <glyph glyph-name="k" unicode="k" horiz-adv-x="450" 
d="M111 345q1 -24 5 -34.5t11 -10.5t17 10t21.5 24t22.5 29t22 26q18 18 34 43.5l32 49t34 40.5t40 17q14 0 28 -7q16 -8 13 -24.5t-15 -34.5t-27.5 -35.5t-24.5 -28.5q-15 -20 -32.5 -38.5l-33.5 -37t-28.5 -37t-17.5 -37.5q-1 -5 2.5 -11.5t9.5 -13l12.5 -13t11.5 -12.5
q13 -15 41 -34.5l57.5 -39.5t54 -40.5t30.5 -37.5q1 -5 -3.5 -11.5t-12 -12.5t-17 -10t-17.5 -4q-20 -1 -44.5 15t-51 39l-54 48t-52.5 42q-32 22 -46 22q-11 0 -13.5 -13.5t-1.5 -42.5q1 -20 2.5 -41t1.5 -39q0 -15 -2 -27.5t-7.5 -19.5t-15.5 -8.5t-26 5.5
q-7 3 -11.5 19.5t-6.5 41t-3 54.5t-1 61q0 23 0.5 44.5t0.5 40.5q0 17 -0.5 31t-1.5 23q-1 13 -3 34.5t-4 45.5t-3.5 48t-1.5 43q0 25 3 34q3 7 11 10.5t19 3.5q14 0 26 -6t17 -19q4 -12 5.5 -27t1.5 -32q0 -35 -4 -65.5t-4 -38.5z" />
    <glyph glyph-name="l" unicode="l" horiz-adv-x="354" 
d="M121 218q1 -7 1 -15v-16v-32q0 -28 2 -50t13 -25q1 -7 13 -7.5t30.5 1.5t40.5 5t43 3q20 0 37 -4.5t27 -16.5q13 -17 13 -28q0 -16 -20 -19.5t-41 -3.5h-29q-24 0 -49 -1t-48 -8q-41 -11 -61 -11q-26 0 -35 15t-9 45q0 22 3 52q1 13 1.5 26t0.5 26q0 35 -2 69t-2 67
q0 8 0.5 15t0.5 14q2 35 -3.5 76.5t-4.5 79.5q0 24 -2 38t5 22q9 9 21.5 8t24.5 -9.5t20.5 -23.5t10.5 -34q1 -11 1.5 -22.5t0.5 -25.5q0 -30 -1.5 -63.5t-2.5 -63.5t-1.5 -52.5t1.5 -30.5z" />
    <glyph glyph-name="m" unicode="m" horiz-adv-x="702" 
d="M315 303q3 -15 8.5 -35t12 -37.5t14 -30t14.5 -12.5q6 0 12 11.5t11 40.5q5 28 14 66.5l18 75.5l16.5 66.5t10.5 39.5q7 25 20.5 35.5t29.5 10.5t30.5 -8.5t24.5 -22.5q12 -18 15 -49q3 -30 8.5 -56.5t13 -51l15.5 -49.5t15 -53q2 -9 4.5 -24.5t6.5 -33.5t9 -38t12 -39
l17 -46.5t8 -37.5q0 -14 -9.5 -21.5t-32.5 -3.5q-15 2 -26 20t-19 45t-16 60t-17 66q-12 42 -18.5 80.5t-11.5 61.5q-8 35 -18 35q-8 0 -15.5 -19t-14.5 -44.5t-12.5 -50t-8.5 -35.5q-6 -21 -11.5 -46.5l-11.5 -51l-12 -49t-14 -39.5q-5 -11 -16.5 -15t-25.5 -5
q-12 -1 -24.5 -1t-21.5 14q-13 22 -23 57.5t-18 73.5l-15 72.5t-14 54.5q-13 34 -21 57t-16 23q-7 0 -15 -18t-20 -60q-11 -36 -18.5 -80.5t-16 -84.5t-18 -68.5t-24.5 -34.5q-12 -5 -21.5 -7.5t-17.5 -2.5q-13 0 -19 8.5t-5 29.5q1 25 9 59.5t18.5 68.5t21 62.5l15.5 42.5
q21 54 33.5 112.5t33.5 113.5q5 13 17.5 18.5t27.5 5.5q17 0 34 -7t24 -19q12 -21 18.5 -51t10.5 -59t7 -54t8 -36z" />
    <glyph glyph-name="n" unicode="n" horiz-adv-x="522" 
d="M307 312q6 -10 16 -23.5t19 -28.5l32 -49t19 -19t7 33v17t-1 20q-2 21 -0.5 47.5t1.5 52.5t-2.5 50t-10.5 41q-7 14 -10 28.5t-3 28.5q0 23 8.5 39.5t25.5 16.5q19 0 45 -26q5 -5 8.5 -33.5t6 -71.5t4.5 -97l4 -110t3.5 -109t4.5 -94q1 -11 -9.5 -16t-24.5 -5
q-18 0 -37.5 6t-25.5 14q-17 20 -33 52.5t-33 59.5l-57.5 92.5l-57.5 95.5q-21 36 -37.5 56t-27.5 20q-17 0 -17 -49v-19t2 -22t2 -26v-29v-62q0 -29 1.5 -56t6.5 -49t5 -36q0 -29 -12 -44t-27 -15q-16 0 -29.5 18t-13.5 56v116q0 56 -1.5 111t-6.5 103q-1 9 -4.5 22l-7 27
t-6.5 28.5t-3 27.5q0 19 8 32t30 17q17 3 30 8t29 -5q28 -17 54 -48t49.5 -66t43 -69.5z" />
    <glyph glyph-name="o" unicode="o" horiz-adv-x="613" 
d="M48 381q15 48 39.5 83t56.5 57t68.5 32.5t75.5 10.5q55 0 108.5 -19.5t96 -55t68.5 -85.5t26 -111q0 -20 -3 -39q-7 -46 -29.5 -88.5t-56 -76t-76 -57t-89.5 -32.5q-32 -6 -65 -6q-48 0 -94.5 16.5t-80.5 59.5q-38 48 -53.5 91t-15.5 88q0 31 6.5 63.5t17.5 68.5z
M221 454q-63 -35 -92.5 -91.5t-29.5 -115.5q0 -35 10.5 -67.5t31.5 -57t52 -39t72 -14.5q14 0 29.5 1.5t32.5 6.5q43 11 73 27.5t50.5 39t34.5 51t26 63.5q7 21 7 46q0 27 -7 52.5t-18 40.5q-28 40 -75 60.5t-98 20.5q-26 0 -51.5 -6t-47.5 -18z" />
    <glyph glyph-name="p" unicode="p" 
d="M58 213v43q0 32 -0.5 67t-3.5 54q-5 34 -12 65t-7 55q0 20 7.5 33t27.5 18q23 5 52 7.5t58 2.5h26.5t23.5 -2q40 -4 70.5 -20.5t51 -41t31 -54.5t10.5 -62q0 -30 -9.5 -60t-29.5 -56.5t-50 -47t-70 -31.5q-10 -3 -26.5 -3t-32 -2t-27 -9t-11.5 -23q0 -22 4 -48t4 -48
q0 -26 -10.5 -40.5t-42.5 -6.5q-16 4 -21.5 30t-7 59t-1.5 67t-4 54zM126 326q2 -24 8 -37.5t15 -20.5t20.5 -8.5t24.5 -0.5q25 2 40 5.5t25.5 9.5t18.5 14.5t17 19.5q32 38 32 74q0 22 -10 40t-26.5 31.5t-37.5 21t-42 7.5q-18 0 -35 -6t-31 -19q-12 -11 -17 -31.5
t-5 -48.5q0 -24 3 -51z" />
    <glyph glyph-name="q" unicode="q" horiz-adv-x="663" 
d="M578 489q31 -40 45 -82.5t16 -78.5q1 -8 1 -15v-14q0 -46 -10.5 -83.5t-37.5 -79.5q-16 -24 -23 -31t-7 -14q0 -5 4.5 -14.5t12.5 -29.5q9 -21 9 -34q0 -17 -15.5 -21.5t-44.5 -5.5q-7 0 -12.5 7t-12.5 15t-17 15t-25 7q-14 0 -31 -7q-52 -20 -105 -20t-100 19
q-95 39 -141 105t-46 143q0 70 37 141t111 131q20 16 53.5 23.5t73.5 7.5q38 0 78 -6t76.5 -17t65.5 -26.5t45 -34.5zM456 205q12 -16 22 -25.5t20 -9.5q11 0 21.5 12t23.5 40q10 21 15.5 42.5t5.5 47.5q0 25 -6 60q-3 18 -12.5 35t-23 31.5t-29.5 26.5t-32 21q-23 8 -45 11
t-44 3q-55 0 -101.5 -20t-81 -53t-54 -75t-19.5 -86q0 -50 28 -97t92 -80q25 -13 65 -13q26 0 49 4q35 5 48.5 13t13.5 19q0 10 -8.5 22.5t-17.5 28.5l-47 62l-29.5 39t-12.5 29q0 9 10 14.5t35 7.5q17 1 35 -12t33.5 -31.5t27.5 -37.5z" />
    <glyph glyph-name="r" unicode="r" horiz-adv-x="455" 
d="M61 215v64q0 29 -0.5 56.5t-3.5 43.5q-5 34 -12 65t-7 55q0 20 7.5 33t27.5 18q23 5 52.5 7.5t58.5 2.5q14 0 26 -0.5t24 -1.5q40 -4 71 -20t52 -40t32 -54t11 -62q0 -39 -16.5 -77.5t-51.5 -68.5q-19 -17 -33.5 -24.5t-14.5 -18.5q0 -8 9 -20t29 -32q14 -14 23.5 -19.5
t25.5 -16.5q22 -16 41.5 -27t19.5 -25q0 -8 -9.5 -20t-35.5 -19q-10 -3 -25 6t-31.5 22t-32 27t-25.5 22q-8 5 -22.5 15.5t-32.5 21.5q-42 24 -60 24q-21 0 -21 -29q0 -13 5 -38t5 -43q0 -23 -12 -35.5t-44 -4.5q-17 5 -21.5 37.5t-4.5 72.5v35q0 20 -0.5 38t-3.5 30z
M129 328q2 -24 8 -37.5t15 -20.5t20.5 -8.5t25.5 -0.5q24 2 39.5 5.5t26 9.5t18 14.5l17.5 19.5q17 20 24 38t7 35q0 22 -10.5 40.5t-27 32t-37.5 21t-42 7.5q-18 0 -34.5 -5.5t-30.5 -18.5q-12 -11 -16.5 -32t-4.5 -49q0 -12 0.5 -24.5t1.5 -26.5z" />
    <glyph glyph-name="s" unicode="s" horiz-adv-x="393" 
d="M324 485q-12 -11 -22.5 -15.5t-21.5 -4.5q-17 0 -33 6t-36 6q-13 0 -28.5 -4.5t-33.5 -16.5q-21 -14 -12 -36t34 -49.5t60 -59.5t66 -65.5t51 -68t15 -67.5q-4 -27 -22 -46.5t-45 -32t-59.5 -18.5t-65.5 -6q-47 0 -86 11t-54 31q-9 12 -10 22.5t4 18t14 12t19 4.5
q17 0 29 -13q7 -5 30.5 -9.5t52.5 -4.5q18 0 35 2.5t31 9.5t23 17.5t10 27.5q0 11 -12 29t-31 39t-42 43l-45 42.5l-39.5 37t-25.5 26.5q-19 23 -27 43t-8 37q0 29 19 51t48 37t64 23t67 8q23 0 42.5 -4t32 -12.5t16.5 -21t-4 -29.5z" />
    <glyph glyph-name="t" unicode="t" horiz-adv-x="371" 
d="M152 342q0 17 -0.5 33.5t-2.5 33.5q-2 18 -5.5 28.5t-11 16.5t-21 9t-35.5 5q-28 2 -47 8.5t-17 20.5q0 24 16 31.5t39 7.5q19 0 39 -2.5t35 -1.5q26 2 65 5.5t74 3.5q27 0 47 -3.5t26 -13.5q1 -2 4 -5.5t5.5 -8t3.5 -8.5t-2 -5q0 -14 -16.5 -17t-38 -3.5t-42.5 -2.5
t-31 -13q-8 -8 -10.5 -39t-2.5 -69q0 -23 0.5 -46t1.5 -43t1 -35.5v-22.5q-1 -23 2 -51.5t3 -56.5q0 -19 -2.5 -35t-10.5 -27q-15 -19 -29 -19q-9 0 -17 6.5t-14 15.5t-9.5 19.5t-3.5 19.5q0 38 6 80.5t6 83.5q0 14 -1.5 27t-3.5 25v48z" />
    <glyph glyph-name="u" unicode="u" horiz-adv-x="472" 
d="M45 508q-1 4 3 10t10.5 11t14.5 8.5t16 3.5q11 0 18.5 -8.5t9.5 -28.5q2 -29 0.5 -53.5t-2.5 -55.5q-1 -16 -1.5 -47.5t-0.5 -68.5q0 -27 1 -54t3 -50q3 -28 9 -38.5t18 -10.5q10 0 24 5t35 11q6 1 14.5 3t17 3.5t15.5 3t10 3.5q20 14 42.5 23.5t39.5 29.5q10 13 13 44.5
t3 66.5q0 27 -1 52t-2 40q-1 8 -3.5 32t-2.5 48q0 23 4 39.5t17 15.5q35 -2 46.5 -26t11.5 -56q0 -23 -3 -46t-5 -40q-1 -11 -1 -23v-26q0 -38 1.5 -78.5t3.5 -70.5q0 -9 1.5 -23.5t3 -31t2.5 -33t1 -30.5q0 -20 -3 -29q-7 -20 -26 -20q-16 0 -30.5 15t-13.5 41
q1 24 -3.5 33t-13.5 9q-11 0 -26.5 -8t-36.5 -15q-20 -6 -46 -15.5l-53 -19t-52 -17t-41 -9.5q-12 -1 -19 9.5t-10.5 28.5t-5 41t-1.5 46q0 26 0.5 49t0.5 34q-2 54 -5 110.5t-3 117.5q0 11 0.5 22.5t0.5 22.5z" />
    <glyph glyph-name="v" unicode="v" horiz-adv-x="388" 
d="M147 331l9.5 -29.5t9.5 -28.5q19 -63 30 -63q7 0 14 18t19 53q7 22 13 46.5l12 49.5q9 33 16.5 65t16 57t18.5 40.5t24 15.5q15 0 34 -22q12 -13 12 -30q0 -19 -10.5 -39.5t-18.5 -41.5l-38 -107t-31 -110q-4 -18 -9 -51.5t-13 -67t-21 -58t-33 -24.5q-13 0 -27 11
q-11 9 -21.5 35t-20.5 61.5t-20 76l-19 79t-18 70.5t-18 50q-3 6 -9 19.5t-12 30t-10.5 34.5t-4.5 32q0 18 9.5 26.5t33.5 -0.5q18 -7 31 -29t23 -51.5t17 -61t12 -56.5z" />
    <glyph glyph-name="w" unicode="w" horiz-adv-x="674" 
d="M143 320l10.5 -46.5t11.5 -42t12 -30.5t12 -12t12 13t12 45q2 9 6.5 31.5l10.5 52l13 61.5t14 59.5t12.5 46t9.5 21.5q27 21 50 21q26 0 44.5 -26t31 -65t21 -84.5l16 -84.5t16 -65t20.5 -26q6 0 19 31.5t27 76t26 94t18 86.5q6 38 17.5 53.5t23.5 15.5q10 0 18.5 -8
t14.5 -21.5t8.5 -30.5t-1.5 -36q-6 -29 -16 -59t-21.5 -61l-23 -62t-20.5 -61q-14 -46 -19.5 -89.5t-12.5 -81.5q-4 -17 -19.5 -21t-46.5 0q-23 3 -37 27.5t-23.5 57.5t-16 67t-13.5 55q-3 8 -7.5 30t-10.5 45t-13.5 40.5t-16.5 16.5q-10 -1 -18 -21t-15 -51t-14 -68.5
t-15 -73.5q-5 -26 -7.5 -51t-13.5 -42q-9 -14 -23.5 -22t-31.5 -8t-30 7q-14 7 -22.5 29.5t-15 49.5t-11 54t-9.5 44q-6 23 -19 62l-27 83t-26 87t-16 73q-3 21 8.5 24t27 -4t29.5 -20t17 -24q5 -25 12 -51.5l13.5 -49t11 -39.5t6.5 -22z" />
    <glyph glyph-name="x" unicode="x" horiz-adv-x="432" 
d="M292 368q-11 -26 -17.5 -40t-6.5 -26t7 -26t22 -40l17.5 -27l28 -42.5t30.5 -49t24.5 -47t10.5 -36.5t-11 -16q-32 -4 -51.5 9t-33 35t-25.5 48.5t-29 49.5t-27 34.5t-18 11.5q-9 0 -19 -15t-28 -46q-20 -34 -33.5 -68t-36.5 -63q-5 -6 -14 -8t-19 -1t-19.5 4.5
t-14.5 9.5q-9 10 -2 34t22.5 55t35.5 63.5l37 59.5l26 42t9 28q0 14 -10 30l-30 47l-26 36t-28 35q-18 21 -26 38.5t-8 31.5q0 15 8.5 23.5t22.5 8.5q20 0 43 -20t39 -65q21 -31 35 -46t25 -15t21.5 14.5t24.5 42.5l15.5 29.5t15.5 28.5q2 3 7 9t10 11l14 14q32 0 45.5 -12
t13.5 -31q0 -18 -9 -37q-14 -29 -34.5 -56t-33.5 -50z" />
    <glyph glyph-name="y" unicode="y" horiz-adv-x="427" 
d="M275 158q-1 -9 0 -24t1 -32t-1.5 -34t-5 -31t-10.5 -22.5t-19 -8.5q-18 0 -43 21q-7 6 -8 14t1 16t5 16.5t4 15.5q2 19 3.5 39.5t1.5 42.5q0 51 -10.5 99t-40.5 78l-34 31l-47.5 44.5t-44.5 45.5t-24 34q-6 19 10.5 28.5t35.5 9.5q11 0 20 -3.5t11 -11.5q9 -7 25 -28
t37 -42.5t45.5 -37.5t51.5 -13q13 1 30 22t35 46.5l35.5 48.5t32.5 29q11 5 23.5 -4.5t23.5 -26.5q7 -11 1 -25.5t-19.5 -30.5t-32 -34l-35.5 -36q-20 -22 -31.5 -49.5t-17.5 -58.5t-7.5 -64t-1.5 -64z" />
    <glyph glyph-name="z" unicode="z" horiz-adv-x="478" 
d="M127 537q24 1 54.5 3.5t60.5 6t56 8t41 9.5q26 9 48.5 1t36.5 -25q21 -24 21 -38q0 -11 -8 -20.5l-19 -23.5l-53 -69.5l-65 -89.5t-62.5 -93.5t-47.5 -81.5q-10 -19 -10 -29q0 -17 19 -19.5t46 -2.5q25 1 49 2.5t53 -0.5q14 -1 27.5 0.5t24.5 1.5q20 0 33 -9.5t17 -42.5
q2 -15 -20 -20t-55 -5q-35 0 -75.5 3t-70.5 3q-55 0 -100 -13q-21 -6 -43.5 -1t-38 16.5t-20 26.5t10.5 29q21 20 45.5 51t46.5 63l40.5 60.5t27.5 43.5l32.5 49l31.5 47.5t25.5 47t14.5 46.5q-8 3 -17.5 4t-19.5 1q-18 0 -38.5 -3t-41 -6.5t-41 -6t-39.5 -1.5
q-23 1 -32.5 11t-9.5 23q0 11 5.5 21.5t15 18t21 9t23.5 -5.5z" />
    <glyph glyph-name="A" unicode="A" horiz-adv-x="489" 
d="M304 525q11 -3 21.5 -20.5t20.5 -43t19.5 -55t17 -58t13 -51.5t8.5 -34q13 -49 29 -92l27.5 -76.5t15 -55.5t-8.5 -29q-20 -12 -34 -12q-24 0 -35 22q-6 13 -10.5 29t-8 31t-7 27.5t-7.5 18.5q-6 8 -20 10.5t-33 2.5q-17 0 -35 -1.5t-35.5 -3.5t-33 -3.5t-25.5 -1.5
q-21 0 -32.5 -11t-18 -26t-12 -32t-14.5 -29q-11 -14 -25 -21t-27 -7q-16 0 -24.5 12.5t2.5 40.5l32.5 81l32.5 82q17 45 36.5 87l38.5 87q8 18 15 42.5t17 46.5t24.5 37.5t37.5 15.5q18 0 38 -10zM322 312q-5 18 -15 46t-15 47q-3 12 -8.5 15.5t-11 2t-10.5 -6.5t-9 -11
q-3 -4 -7 -12.5l-8.5 -18t-9.5 -19l-8 -15.5q-11 -20 -18.5 -37t-12.5 -37q-5 -16 -4 -25t4.5 -13t9 -4.5t10.5 -0.5q14 1 36 1t39 2q6 1 16 1.5t18.5 3.5t13.5 8.5t3 15.5q-1 3 -3 12.5t-4.5 19.5t-4 17.5z" />
    </font>
</defs>
</svg>
